<svg id="圖層_1" data-name="圖層 1" xmlns="http://www.w3.org/2000/svg" viewBox="0 0 410.81 42.3">
  <defs>
    <style>
      .cls-1 {
        fill: #0064a8;
      }

      .cls-2 {
        fill: #fff;
      }

      .cls-3 {
        fill: #be4709;
      }

      .cls-4 {
        fill: #742a24;
      }

      .cls-5 {
        fill: #a74624;
      }
    </style>
  </defs>
  <title>logo</title>
  <g id="_0402中原" data-name="0402中原">
    <g id="LOGO-Copy">
      <g id="LOGO">
        <path id="Fill-1" class="cls-1" d="M31.89,50.4A20.78,20.78,0,1,0,11.11,29.63,20.81,20.81,0,0,0,31.89,50.4" transform="translate(-11.11 -8.7)"/>
        <path id="Fill-4" class="cls-2" d="M40.36,18.66c.64,1.91,4.17,3.94,4.17,3.94,1.75-1.47.64-6.53.64-6.53-.78,0-1.53,3.72-1.53,3.72-2.25-1.36-3.28-1.13-3.28-1.13" transform="translate(-11.11 -8.7)"/>
        <path id="Fill-6" class="cls-2" d="M42.23,22.38c.44,2,3.86,4.28,3.86,4.28,2.3-1.84,1-6.45,1-6.45-.75-.08-1.75,3.56-1.75,3.56-2.14-1.53-3.16-1.39-3.16-1.39" transform="translate(-11.11 -8.7)"/>
        <path id="Fill-8" class="cls-2" d="M43.56,26.16c.25,2,3.3,4.52,3.3,4.52,2.56-1.94,1.92-6.33,1.92-6.33-.75-.11-2.22,3.53-2.22,3.53-2-1.67-3-1.72-3-1.72" transform="translate(-11.11 -8.7)"/>
        <path id="Fill-10" class="cls-2" d="M46.5,32.18c-1.39-2.08-2.41-2.39-2.41-2.39-.06,2.42,2.11,5.39,2.11,5.39,2.72-1.08,3.19-5.89,3.19-5.89-.67-.27-2.89,2.89-2.89,2.89" transform="translate(-11.11 -8.7)"/>
        <path id="Fill-12" class="cls-2" d="M45.31,36.32c-.45-2.39-1.45-2.89-1.45-2.89-.91,2.09-.11,5.31-.11,5.31,4.2-.45,5.86-4.67,5.86-4.67-.5-.47-4.3,2.25-4.3,2.25" transform="translate(-11.11 -8.7)"/>
        <path id="Fill-14" class="cls-2" d="M42.84,39.71a5.48,5.48,0,0,0-.28-3.44c-1.89,1.61-1.75,5.52-1.75,5.52,4.89-.3,6.89-2.86,6.89-2.86-1.45-.55-4.86.78-4.86.78" transform="translate(-11.11 -8.7)"/>
        <path id="Fill-16" class="cls-2" d="M39.09,42.82c1.47-2.61.8-3.91.8-3.91a10.42,10.42,0,0,0-3.36,5.44c3.36,1.14,7.2-1.25,7.2-1.25-1.53-1-4.64-.28-4.64-.28" transform="translate(-11.11 -8.7)"/>
        <path id="Fill-18" class="cls-2" d="M43.09,19c.33-.2-.14-1.45-1.06-2.78S40,14,39.67,14.16s.14,1.44,1.06,2.77,2,2.28,2.36,2.09" transform="translate(-11.11 -8.7)"/>
        <path id="Fill-20" class="cls-2" d="M23.42,18.66s-1-.23-3.28,1.13c0,0-.75-3.72-1.5-3.72,0,0-1.14,5.06.64,6.53,0,0,3.5-2,4.14-3.94" transform="translate(-11.11 -8.7)"/>
        <path id="Fill-22" class="cls-2" d="M17.7,26.66s3.44-2.31,3.86-4.28c0,0-1-.14-3.14,1.39,0,0-1-3.64-1.75-3.56,0,0-1.28,4.61,1,6.45" transform="translate(-11.11 -8.7)"/>
        <path id="Fill-24" class="cls-2" d="M16.92,30.68s3.08-2.52,3.33-4.52c0,0-1.05.05-3,1.72,0,0-1.47-3.64-2.22-3.53,0,0-.67,4.39,1.89,6.33" transform="translate(-11.11 -8.7)"/>
        <path id="Fill-26" class="cls-2" d="M17.61,35.18s2.17-3,2.11-5.39c0,0-1,.31-2.41,2.39,0,0-2.22-3.16-2.92-2.89,0,0,.5,4.81,3.22,5.89" transform="translate(-11.11 -8.7)"/>
        <path id="Fill-28" class="cls-2" d="M20,33.43s-1,.5-1.48,2.89c0,0-3.77-2.72-4.3-2.25,0,0,1.69,4.22,5.86,4.67,0,0,.81-3.22-.08-5.31" transform="translate(-11.11 -8.7)"/>
        <path id="Fill-30" class="cls-2" d="M21.25,36.27a5.37,5.37,0,0,0-.3,3.44s-3.42-1.33-4.86-.78c0,0,2,2.56,6.91,2.86,0,0,.14-3.91-1.75-5.52" transform="translate(-11.11 -8.7)"/>
        <path id="Fill-32" class="cls-2" d="M23.89,38.91s-.64,1.3.83,3.91c0,0-3.1-.75-4.66.28,0,0,3.83,2.39,7.19,1.25a10.42,10.42,0,0,0-3.36-5.44" transform="translate(-11.11 -8.7)"/>
        <path id="Fill-34" class="cls-2" d="M23.06,16.93c.94-1.33,1.41-2.58,1.05-2.77s-1.39.72-2.33,2.08S20.36,18.82,20.73,19s1.38-.73,2.33-2.09" transform="translate(-11.11 -8.7)"/>
        <path id="Fill-36" class="cls-2" d="M36.42,19.32l-.27,0a2.09,2.09,0,0,0,.08-.51A1.93,1.93,0,0,0,34.87,17a1.73,1.73,0,0,1,1.55-.93,1.63,1.63,0,1,1,0,3.25m-.57-.1a1.62,1.62,0,0,1-1.15-1.54,1.42,1.42,0,0,1,.07-.42,1.66,1.66,0,0,1,1.15,1.53,1.49,1.49,0,0,1-.07.43M34.2,20.43a1.76,1.76,0,0,1-1.59-1,1.93,1.93,0,0,0,1.31-1.79,1.62,1.62,0,0,0-.08-.49,2.1,2.1,0,0,1,.36,0l.27,0a1.69,1.69,0,0,0-.08.5,1.92,1.92,0,0,0,1.36,1.8,1.73,1.73,0,0,1-1.55.95m-.59-2.75a1.64,1.64,0,0,1-1.1,1.53,1.42,1.42,0,0,1-.06-.42,1.63,1.63,0,0,1,1.1-1.51,1.34,1.34,0,0,1,.06.4m-1.72,1.64a1.53,1.53,0,0,1-.3,0,1.64,1.64,0,0,0,.08-.5A1.93,1.93,0,0,0,30.31,17a1.76,1.76,0,0,1,1.58-.93,1.74,1.74,0,0,1,1.56.94,1.93,1.93,0,0,0-1.31,1.78,2,2,0,0,0,.08.5,1.84,1.84,0,0,1-.33,0m-.59-.1a1.63,1.63,0,0,1-1.16-1.54,1.54,1.54,0,0,1,.07-.42,1.66,1.66,0,0,1,1.15,1.54,1.52,1.52,0,0,1-.06.42m-1.69,1.21a1.76,1.76,0,0,1-1.56-1,1.91,1.91,0,0,0,1.34-1.79,1.62,1.62,0,0,0-.08-.49,1.53,1.53,0,0,1,.3,0l.31,0a1.74,1.74,0,0,0-.08.5,1.92,1.92,0,0,0,1.36,1.8,1.76,1.76,0,0,1-1.59.95m-.52-2.75A1.63,1.63,0,0,1,28,19.21a1.42,1.42,0,0,1-.07-.42A1.67,1.67,0,0,1,29,17.26a1.54,1.54,0,0,1,.07.42m-1.75,1.64a1.63,1.63,0,1,1,0-3.25,1.76,1.76,0,0,1,1.58.93,1.93,1.93,0,0,0-1.33,1.79,1.64,1.64,0,0,0,.08.5,1.84,1.84,0,0,1-.33,0m9.08-3.55a2,2,0,0,0-1.85,1.14,2.31,2.31,0,0,0-.37,0,2.14,2.14,0,0,0-.45.05,2,2,0,0,0-1.86-1.16A2.07,2.07,0,0,0,30,16.91a2.6,2.6,0,0,0-.4,0,1.72,1.72,0,0,0-.39,0,2.06,2.06,0,0,0-1.88-1.15,1.92,1.92,0,1,0,.42,3.79,2,2,0,0,0,1.85,1.15,2.06,2.06,0,0,0,1.89-1.15,2.45,2.45,0,0,0,.39,0,2.72,2.72,0,0,0,.42,0,2.08,2.08,0,0,0,1.89,1.15,2,2,0,0,0,1.85-1.15,1.5,1.5,0,0,0,.37,0,1.92,1.92,0,1,0,0-3.83" transform="translate(-11.11 -8.7)"/>
        <path id="Fill-38" class="cls-2" d="M34.86,46.84a1,1,0,0,1-.9.33,3.86,3.86,0,0,1-.71-.08,6.16,6.16,0,0,0,.19-1,6.67,6.67,0,0,0,.84-.67,1.93,1.93,0,0,1,.65,1.17.5.5,0,0,1-.07.27m-2,.7c-.26.59-.61.92-.95.91s-.67-.32-.93-.91c0-.08-.07-.19-.11-.29a5.81,5.81,0,0,0,1.05-.34,7.18,7.18,0,0,0,1,.35c0,.09-.07.19-.11.28m-3-.37c-.46,0-.77-.13-.88-.33a.43.43,0,0,1-.08-.27,1.91,1.91,0,0,1,.65-1.17,5.88,5.88,0,0,0,.84.67,9.28,9.28,0,0,0,.19,1,3.86,3.86,0,0,1-.72.08m-1-3.26a.45.45,0,0,1,.07-.27,1,1,0,0,1,.89-.34,4.14,4.14,0,0,1,.73.09,7.22,7.22,0,0,0-.2,1,6.67,6.67,0,0,0-.84.67,1.86,1.86,0,0,1-.65-1.16M31,43c.26-.58.6-.9.92-.9h0c.34,0,.69.31.95.9,0,.08.07.18.11.27a6.72,6.72,0,0,0-1,.34,7,7,0,0,0-1-.34A2.15,2.15,0,0,1,31,43m2.52,1.76a4.88,4.88,0,0,1,.63.53,5.82,5.82,0,0,1-.63.52,4.61,4.61,0,0,0,0-1m-1.28-1a7.83,7.83,0,0,1,.83-.26,5.8,5.8,0,0,1,.16.79c-.16-.1-.32-.2-.49-.29l-.5-.24m-1.59.53a7.78,7.78,0,0,1,.17-.79,8.48,8.48,0,0,1,.82.26c-.16.08-.33.15-.49.24l-.5.29m-.29,1.54c-.24-.18-.45-.36-.64-.53a7.25,7.25,0,0,1,.64-.54c0,.18,0,.36,0,.54s0,.35,0,.53m1.28,1a6.39,6.39,0,0,1-.82.26,5.65,5.65,0,0,1-.16-.78c.15.1.32.19.49.29l.49.23m1.59-.53A5.8,5.8,0,0,1,33,47a5.93,5.93,0,0,1-.82-.26c.16-.07.32-.14.49-.23l.49-.3m-.61.09a6.94,6.94,0,0,1-.68.32c-.22-.09-.45-.2-.68-.32l-.65-.39c0-.23,0-.46,0-.7s0-.48,0-.71c.21-.13.42-.26.65-.38l.68-.33a7.06,7.06,0,0,1,.68.33c.24.12.45.26.66.39,0,.23,0,.46,0,.7s0,.47,0,.69c-.21.14-.42.27-.66.4m1.38-3h0a1,1,0,0,1,.9.33.5.5,0,0,1,.07.27,1.91,1.91,0,0,1-.65,1.17,5.84,5.84,0,0,0-.84-.66,6,6,0,0,0-.19-1,3.84,3.84,0,0,1,.7-.09m.5,1.94a2.18,2.18,0,0,0,.72-1.34.76.76,0,0,0-.1-.39A1.27,1.27,0,0,0,34,43.06a6.09,6.09,0,0,0-.79.1c-.28-.79-.72-1.32-1.29-1.35s-1,.56-1.27,1.35a4.78,4.78,0,0,0-.8-.09,1.19,1.19,0,0,0-1.09.44.71.71,0,0,0-.11.4,2.19,2.19,0,0,0,.71,1.33,2.17,2.17,0,0,0-.71,1.33.8.8,0,0,0,.11.4,1.22,1.22,0,0,0,1.09.44,4,4,0,0,0,.8-.1c.28.81.71,1.35,1.27,1.38s1-.57,1.29-1.38a3.88,3.88,0,0,0,.79.1,1.24,1.24,0,0,0,1.1-.44.71.71,0,0,0,.11-.4,2.14,2.14,0,0,0-.72-1.33" transform="translate(-11.11 -8.7)"/>
        <path id="Fill-40" class="cls-2" d="M31.88,44.51a.73.73,0,1,0,.77.73.76.76,0,0,0-.77-.73" transform="translate(-11.11 -8.7)"/>
        <path id="Fill-42" class="cls-2" d="M30.65,21.72H24.59v1.7h6.06a1.36,1.36,0,0,1-.31-.85,1.34,1.34,0,0,1,.31-.85" transform="translate(-11.11 -8.7)"/>
        <path id="Fill-44" class="cls-2" d="M39.2,21.72H33a1.3,1.3,0,0,1,.32.85,1.32,1.32,0,0,1-.32.85H39.2Z" transform="translate(-11.11 -8.7)"/>
        <path id="Fill-46" class="cls-2" d="M32.75,22.57a.89.89,0,0,1-.91.86.86.86,0,1,1,0-1.72.89.89,0,0,1,.91.86" transform="translate(-11.11 -8.7)"/>
        <path id="Fill-48" class="cls-2" d="M23,36.66v-.79L30.78,25h.56Zm17.84,0L32.45,25H33l7.81,10.85Zm4.7,7.09.26-.19h0l-4.64-6.45V35.77L33.34,24.94v-.87H30.42V25L22.65,35.77v1.34L18,43.56l.26.19h0L31.73,25h.32Z" transform="translate(-11.11 -8.7)"/>
        <path id="Fill-50" class="cls-3" d="M26.07,26.21H37.71l0,8.31a6.75,6.75,0,0,1-5.83,6.16,6.31,6.31,0,0,1-5.75-6.22Z" transform="translate(-11.11 -8.7)"/>
        <path id="Fill-52" class="cls-2" d="M37.71,29.66H33V26.21H30.79v3.44H26.1V31.9h4.69v8.56a5.51,5.51,0,0,0,1.06.22,11.06,11.06,0,0,0,1.17-.3V31.9h4.66Z" transform="translate(-11.11 -8.7)"/>
      </g>
      <g id="Group-85">
        <path id="Fill-1-2" data-name="Fill-1" class="cls-4" d="M201.31,20.93c.41,0,.62.17.62.51,0,.1-.12.27-.34.51a16,16,0,0,1-1.4,1.6A15.89,15.89,0,0,0,203.25,26a5.44,5.44,0,0,0,2.35.63c.34,0,.51.13.51.38a1.86,1.86,0,0,1-.66,1.35,3.81,3.81,0,0,1-2,1,1.06,1.06,0,0,1-.79-.38q-.64-.69-3.3-4.62a.49.49,0,0,1-.12.13,1.33,1.33,0,0,1-.8.4,3.33,3.33,0,0,1-1.81-.56,1.51,1.51,0,0,1-.74-1.14c0-.05.08-.08.23-.1a7.37,7.37,0,0,0,1.51-.23,7.9,7.9,0,0,0,1.55-.61,13,13,0,0,0,1.72-1C201,21,201.16,20.93,201.31,20.93Zm-5.92-9.34.71.1q4.86,0,6.54-.1c.27,0,.41.2.41.61a1,1,0,0,1-.41.78,1.29,1.29,0,0,1-1,.56,24.61,24.61,0,0,0-4-.23,10,10,0,0,0-2.1.31l0,.51,5,.1a3.51,3.51,0,0,1,1.17.18.52.52,0,0,1,.46.53c0,.49-.2.74-.61.74a44.81,44.81,0,0,0-6.13.3,5.35,5.35,0,0,1,0,.58h.13l5.31.13a4.38,4.38,0,0,1,1.2.15.54.54,0,0,1,.44.54c0,.47-.2.71-.59.71a40.3,40.3,0,0,0-6.69.38v0c0,.19-.06.37-.07.54,4.45,0,7.52-.09,9.19-.21q.51,0,.51.69a1.22,1.22,0,0,1-.44.91,1.58,1.58,0,0,1-1.2.64c-1.56-.15-4.12-.23-7.66-.23h-.36a1.62,1.62,0,0,1,.06.41L195,23.88a10.46,10.46,0,0,1-.36,2.64c1.74-.17,3-.27,3.83-.31.34,0,.52.21.52.61a.85.85,0,0,1-.72.92c-1.94.35-3.74.76-5.41,1.21-.82,0-1.23-.3-1.23-.91a2.06,2.06,0,0,1,.31-1.22,1.43,1.43,0,0,1,.51-.12,6.14,6.14,0,0,0,.51-2.52,21.09,21.09,0,0,0-.23-3l-.18,0c-.82,0-1.22-.31-1.22-.92a1.61,1.61,0,0,1,1.53-1.5l.46.1c0-.94,0-2,0-3.07a22.6,22.6,0,0,0-.31-3.53c0-.56.34-.83,1-.83a2,2,0,0,1,.92.17A1.18,1.18,0,0,1,195.39,11.59Zm-9.7-.18,3.09.08c.23,0,.6,0,1.1-.08.88,0,1.32.3,1.32.91a18.19,18.19,0,0,0-.51,4.14,1.06,1.06,0,0,1-1.22,1.12,13,13,0,0,0-1.84-.1,12.23,12.23,0,0,0-2.3.2c0,.54-.12,1.39-.26,2.54h.31l1.33-.08,2.25.08a3.92,3.92,0,0,1,1-.28c.68,0,1,.37,1,1.12a5.38,5.38,0,0,0-.51,1.45,32.45,32.45,0,0,0-.36,3.91,2.11,2.11,0,0,1-1.23,2.08,10,10,0,0,1-4,.66c-.44,0-.71-.16-.79-.48a18.17,18.17,0,0,0-.64-2c0-.27.1-.41.31-.41l1.12.13a6.42,6.42,0,0,0,2.32-.28,1,1,0,0,0,.69-.89c.27-1.2.53-2.2.77-3q0-.54-.21-.54h-2.06a7.82,7.82,0,0,0-2.74.61q-1,0-1-.81a1.65,1.65,0,0,1,.23-.71,9.71,9.71,0,0,0,.38-2.39c-.06-.93-.1-1.48-.1-1.65,0-.56.31-.84.92-.84a1.42,1.42,0,0,1,.31,0l.31-.13a4,4,0,0,1,1.32-.17c.51,0,1.19,0,2,.1.51,0,.75-.11.74-.33,0-.73,0-1.31.07-1.73a.45.45,0,0,0-.51-.51,4.51,4.51,0,0,0-1.63-.2,12.17,12.17,0,0,0-3.07.43c-.54,0-.81-.3-.81-.91a1,1,0,0,1,.92-1Z" transform="translate(-11.11 -8.7)"/>
        <path id="Fill-3" class="cls-4" d="M231.79,14a6.52,6.52,0,0,0,2.63,1.12c.2.07.31.17.31.31s-.24.55-.72.91a2,2,0,0,1-1.23.43.89.89,0,0,1-.74-.51,8.76,8.76,0,0,1-.69-2C231.35,14.13,231.5,14,231.79,14Zm-2.58,7.44v1l1.53,0a3.76,3.76,0,0,1,.61.05v-.93C230.55,21.5,229.84,21.46,229.21,21.46Zm0-2.64v1c.82,0,1.57-.06,2.27-.07a4.37,4.37,0,0,1,.08-.54c0-.25-.14-.38-.41-.38Zm-.69-4.26c.73,0,1.1.29,1.1.89L229,16.69a.49.49,0,0,1-.51.28c-.49,0-.76-.09-.79-.28l-.36-1.24C227.37,14.85,227.75,14.56,228.52,14.56ZM231.86,12a.9.9,0,0,1,.72.38,1.09,1.09,0,0,1,.31.74c0,.32-.24.56-.72.71a48.87,48.87,0,0,1-6.84.61,2.58,2.58,0,0,1-1.36-.28,1.07,1.07,0,0,1-.38-.84c0-.33.24-.5.72-.5,1.05.06,1.73.1,2,.1.51,0,1.4-.08,2.68-.23a9.72,9.72,0,0,0,2.48-.59A.89.89,0,0,1,231.86,12ZM223,15a10.16,10.16,0,0,0,1.23.1,1.55,1.55,0,0,0,.92-.58c.2,0,.3.12.3.38a4.79,4.79,0,0,1-.46,1.5,4.83,4.83,0,0,1-.33.73,1.7,1.7,0,0,1,.49-.1l6,.2a11.09,11.09,0,0,1,1.43-.2c.82,0,1.23.37,1.23,1.12a12.24,12.24,0,0,0-.41,1.52h.2l1.84-.2c.41,0,.61.18.61.53a1.75,1.75,0,0,1-.58,1.17,2.43,2.43,0,0,1-1.66.74,5.2,5.2,0,0,0-.62-.13v1.37c0,.53-.3.79-.92.79h-.05a.6.6,0,0,1-.35.1l-2.58,0c.05.87.13,1.88.23,3a2.44,2.44,0,0,1-1.08,2.26,4.81,4.81,0,0,1-2.29.58c-.45,0-.73-.13-.85-.38a7.12,7.12,0,0,0-.53-1.3.29.29,0,0,1-.15-.25c0-.2.13-.3.4-.3a3.11,3.11,0,0,0,2-.41,1.57,1.57,0,0,0,.36-1.22c0-.68-.06-1.32-.07-1.93-1.2.09-2.16.19-2.89.31a.82.82,0,0,1-.92-.92,1.35,1.35,0,0,1,.36-.76,1.39,1.39,0,0,1,1.07-.46l2.35,0v-.91c-.58,0-1.11.05-1.58.1a14.45,14.45,0,0,0-2.1.36.8.8,0,0,1-.92-.89,1.36,1.36,0,0,1,.54-.89,1.58,1.58,0,0,1,1-.46,4.34,4.34,0,0,1,.82.1,9.48,9.48,0,0,0,1.64.13,5.15,5.15,0,0,1,.56,0c0-.39,0-.75-.05-1.07l-2.56.07c-.54,0-.81-.24-.81-.73a1,1,0,0,1,.2-.64,1.26,1.26,0,0,1-.79-.48,2.3,2.3,0,0,1-.54-1.5C222.67,15.22,222.77,15,223,15Zm-7.1,9.47a.39.39,0,0,1,.15,0l3.17.1a3.87,3.87,0,0,1,.69.05c0-.34,0-.73.05-1.17a21.07,21.07,0,0,0-4.06.33v.71Zm0-2.54.26,0,3.16.12a5.09,5.09,0,0,1,.69.05c0-.23,0-.46,0-.68s-.06-.26-.18-.28a16.3,16.3,0,0,0-2.15-.1,10.91,10.91,0,0,0-1.81.18V22Zm-2-9.55,3.09,0,0-.36Q217,11,218,11q1.23,0,1.23,1.11l0,.41,1.66,0a4.48,4.48,0,0,1,1.2.15.52.52,0,0,1,.43.53c0,.48-.2.71-.61.71q-1.52,0-2.79,0l0,.89h1.2a3,3,0,0,1,1.13.2.59.59,0,0,1,.4.63c0,.33-.17.49-.51.49l-2.32,0,0,.89H221l1.33-.1c.4,0,.61.24.61.71a1,1,0,0,1-.41.79.9.9,0,0,1-.72.35c-1-.08-2.25-.12-3.65-.12a29.88,29.88,0,0,0-3,.15,11.77,11.77,0,0,0-2.32.35c-.75,0-1.13-.3-1.13-.91a1.6,1.6,0,0,1,.46-.94,1.12,1.12,0,0,1,.87-.38,4.45,4.45,0,0,0,1.23.2l2.83-.07,0-.82a15.9,15.9,0,0,0-3.12.41q-.81,0-.81-.84a1.06,1.06,0,0,1,.33-.63,1.1,1.1,0,0,1,.89-.38h2.66l0-.82a34.75,34.75,0,0,0-3.65.31.71.71,0,0,1-.82-.79,1.14,1.14,0,0,1,.33-.71A1.39,1.39,0,0,1,213.89,12.42Zm.92,7.19a2.34,2.34,0,0,1,.38,0,1.85,1.85,0,0,1,.74-.13c1.65,0,3,0,4.09.1a3.26,3.26,0,0,0,1.12-.2c.75,0,1.13.34,1.13,1a16,16,0,0,0-.59,4.8,18.67,18.67,0,0,0,.18,2.52c0,1-.31,1.52-.92,1.52a.89.89,0,0,1-.95-.84,10.5,10.5,0,0,1-.18-2.11,2.85,2.85,0,0,1,0-.3,20.47,20.47,0,0,0-4,.33,6.31,6.31,0,0,1-.26,1A3.43,3.43,0,0,1,214.48,29a2.12,2.12,0,0,1-1.2.53A2.43,2.43,0,0,1,211.9,29c-.58-.45-.87-.81-.87-1.06a.68.68,0,0,1,.41-.61,3.6,3.6,0,0,0,2-1q.69-.73.69-3.12a15.78,15.78,0,0,0-.3-3C213.79,19.81,214.13,19.61,214.81,19.61Z" transform="translate(-11.11 -8.7)"/>
        <path id="Fill-5" class="cls-4" d="M261.6,23.77c.68,0,1,.31,1,.92a1.1,1.1,0,0,1-.2.73,22,22,0,0,1-2.45,1c-.48,0-.72-.18-.72-.53a15.43,15.43,0,0,1,1.23-1.5A1.27,1.27,0,0,1,261.6,23.77Zm-5.41-.58c.68,0,1,.3,1,.89a.93.93,0,0,1-.21.71,15.64,15.64,0,0,1-2,1c-.48,0-.71-.16-.71-.49a14.2,14.2,0,0,1,.81-1.55A1.28,1.28,0,0,1,256.19,23.19ZM254,12.83v.38h3.39a2.46,2.46,0,0,1,.41,0v0c0-.2-.14-.3-.41-.3C256.49,12.87,255.36,12.85,254,12.83Zm-.08,1.68c0,.34-.07.65-.1.94,1.1,0,2.29.09,3.57.22.21,0,.31-.1.31-.33s0-.64,0-.91C256.35,14.43,255.08,14.46,253.94,14.51ZM252.56,19q-.36.6-.87,1.29c0,.2.14.31.41.31l1.58.1c.8,0,1.45,0,1.94-.08q.36,0,.36-.33s0-.05-.07-.1a5.73,5.73,0,0,0-.54-.51v-.3a1.3,1.3,0,0,1,0-.38h-2.86ZM249,13.21h2.83c0-.12,0-.24-.05-.38-.7,0-1.42,0-2.17,0-.41,0-.61.1-.61.3ZM252,15.47c0-.3,0-.61,0-.91-1.21.07-2.21.14-3,.23l-.06.45c0,.29.14.43.41.43C250.13,15.57,251,15.51,252,15.47Zm-.89,8.1q1.23,0,1.23,1.32c-.31.49-.63.94-.95,1.35a40.14,40.14,0,0,1,5.36.48,33.19,33.19,0,0,0,4.27.41,10.75,10.75,0,0,0,4.19-1c.27,0,.4.2.4.61a3.52,3.52,0,0,1-1,1.88,3.26,3.26,0,0,1-2.12,1.19,4.64,4.64,0,0,1-.9-.12q-7.53-1.94-9.73-1.93a11.25,11.25,0,0,0-2.24.3q-1.23,0-1.23-1c0-.06.06-.14.18-.22a10.94,10.94,0,0,0,.95-.92,4.32,4.32,0,0,0,.71-1.29C250.24,23.91,250.55,23.57,251.08,23.57Zm-3.17-12.49a1.63,1.63,0,0,1,.57.1,2.19,2.19,0,0,0,.86.13H254c1,0,2.29,0,3.7.1a7.62,7.62,0,0,0,1.12-.1c.61,0,.92.29.92.89a.78.78,0,0,1-.07.17,2.89,2.89,0,0,0-.24.84,17.45,17.45,0,0,0-.1,1.8,12.19,12.19,0,0,0,.1,1.25c0,.68-.27,1-.81,1a48.06,48.06,0,0,0-5.06-.3c-.07.2-.14.41-.23.61q4.18,0,7.23.33l1.63-.23c.75,0,1.13.2,1.13.61a1,1,0,0,1-.23.53,8.21,8.21,0,0,0-.9,3.13.9.9,0,0,1-1,1c-.68,0-1-.29-1-.89a11.26,11.26,0,0,1,.31-2.76c-.94-.11-2-.18-3.19-.23a6.5,6.5,0,0,1,.5,1.11,3.39,3.39,0,0,1,.24.87c0,.67-.46,1-1.36,1.09-1.53.14-2.78.2-3.75.2h-1c-.61,0-1.33,0-2.17.1s-1.1-.3-1.1-.91c0-.14.11-.31.34-.53a8.7,8.7,0,0,0,1.58-1.83l.05-.05a30.67,30.67,0,0,0-3.73.48,10.28,10.28,0,0,1-.31,3.45c-.15.41-.52.61-1.12.61s-.71-.16-.71-.48a18.73,18.73,0,0,0-.62-5.1c0-.54.38-.82,1.13-.82a1.4,1.4,0,0,1,.79.18,1.84,1.84,0,0,0,.74.23c1.21-.07,2.76-.1,4.65-.1a4,4,0,0,0,.2-.58,13.81,13.81,0,0,0-2.07.12,10,10,0,0,0-1.76.26c-.54,0-.82-.34-.82-1A10.19,10.19,0,0,0,247.3,14a8.22,8.22,0,0,0-.31-2A.81.81,0,0,1,247.91,11.08ZM242.19,26a7.89,7.89,0,0,0,1.43.2c.82,0,1.84-.67,3.07-2,.27,0,.41.17.41.51a6,6,0,0,1-1.26,2.51c-.83,1.31-1.57,2-2.22,2a1.5,1.5,0,0,1-1.22-.66,3,3,0,0,1-.62-1.86C241.78,26.22,241.92,26,242.19,26Z" transform="translate(-11.11 -8.7)"/>
        <path id="Fill-7" class="cls-4" d="M288.07,12.32l2.45.21a6.07,6.07,0,0,0,1.32-.21c1,0,1.54.33,1.54,1a30.28,30.28,0,0,0-.62,5.72c-.05.79-.52,1.19-1.43,1.19a18.27,18.27,0,0,0-2.86-.18,12.75,12.75,0,0,0-2.68.26,39.14,39.14,0,0,1-.58,5c0,.33.2.51.61.56.75.09,2.65.13,5.72.13a10.71,10.71,0,0,0,4-.69c.27,0,.41.23.41.69a3.78,3.78,0,0,1-.59,1.83c-.46.74-.88,1.11-1.25,1.11s-3.55-.33-9.52-1c-.94-.12-1.41-.53-1.41-1.22a33,33,0,0,0,.41-4.32c0-1,0-2.1-.1-3.3q0-.81,1-.81a1.69,1.69,0,0,1,.53.08l.18-.08a4,4,0,0,1,1.43-.2c.79,0,1.84,0,3.17.1.58,0,.85-.17.82-.51,0-1.17.06-2.11.1-2.84a.54.54,0,0,0-.61-.61,2.78,2.78,0,0,0-.92-.1,41.89,41.89,0,0,0-5.72.43.82.82,0,0,1-.92-.92,1,1,0,0,1,1-1.11ZM280.2,24a5.24,5.24,0,0,0,2.15,1.45.37.37,0,0,1,.3.38c0,.32-.3.7-.92,1.14a2.66,2.66,0,0,1-1.53.48c-.1,0-.19-.19-.25-.58s-.17-1.32-.26-2.44C279.69,24.12,279.86,24,280.2,24Zm-2.65-12.9c.69,0,1,.37,1,1.12a1.54,1.54,0,0,1-.46,1,22.4,22.4,0,0,1-3,3.32,11.18,11.18,0,0,1,1.25,1c.55-.61,1.09-1.19,1.61-1.75a.89.89,0,0,1,.64-.33,1,1,0,0,1,.79.38,1.39,1.39,0,0,1,.31,1,2.48,2.48,0,0,1-.51.59c-1.07,1.05-2.14,2.05-3.19,3-.19.2-.28.34-.28.43,0,.29.08.43.25.43.51,0,1.15.08,1.92.08a5.39,5.39,0,0,0,1.56-.16.23.23,0,0,0,.25-.25c-.14-.56-.27-1.11-.41-1.65V19.2c0-.5.31-.77.92-.81s.79.31.92.92.36,1.41.56,2.15a1.33,1.33,0,0,1,.18.72c0,.59-.28.88-.84.88l-1.33-.1c-.4.09-.82.15-1.25.21a1.53,1.53,0,0,1,0,.3c-.05.64-.08,1.22-.08,1.73l.2,2.46c0,1.13-.38,1.7-1.14,1.7s-.92-.57-.92-1.7.12-1.89.12-2.46a14.12,14.12,0,0,0-.12-1.73,1.17,1.17,0,0,1,.05-.38l-1.07,0a10.89,10.89,0,0,0-1.64.13c-.88,0-1.33-.34-1.33-1a1,1,0,0,1,.23-.67c.82-.91,1.63-1.82,2.43-2.74a13.57,13.57,0,0,0-2.58-1.22.56.56,0,0,1-.49-.58.88.88,0,0,1,.44-.69A6.57,6.57,0,0,0,274,15.12a17.51,17.51,0,0,0,2.93-3.61A.73.73,0,0,1,277.55,11.08Zm-2.66,13.23c.2,0,.31.12.31.38a3.3,3.3,0,0,1-.13.66,16.91,16.91,0,0,1-.61,2.18c-.19.34-.35.51-.49.51a2.64,2.64,0,0,1-1.68-.56c-.58-.46-.87-.84-.87-1.17s.1-.47.31-.5a5.72,5.72,0,0,0,1.27-.33A10,10,0,0,0,274.89,24.31Z" transform="translate(-11.11 -8.7)"/>
        <path id="Fill-9" class="cls-4" d="M321.37,22.76c.75,0,1.13.34,1.13,1a.93.93,0,0,1-.21.71,17.57,17.57,0,0,1-2.55,1.21c-.48,0-.71-.2-.71-.6a17.29,17.29,0,0,1,1.12-1.71,1.4,1.4,0,0,1,1.22-.63m-4.28-.69c.68,0,1,.3,1,.89a.91.91,0,0,1-.21.71,15.58,15.58,0,0,1-2.24,1.53q-.72,0-.72-.51a21.15,21.15,0,0,1,1-2,1.31,1.31,0,0,1,1.13-.59m-5.52-7.41,3.37.08a3.52,3.52,0,0,1,1.17.17.54.54,0,0,1,.46.54c0,.47-.2.71-.61.71a20.58,20.58,0,0,0-4.9.4c-.54,0-.82-.26-.82-.78a1.12,1.12,0,0,1,.33-.71,1.33,1.33,0,0,1,1-.41m-.51,7.62c.82,0,1.22.43,1.22,1.29A20.58,20.58,0,0,1,311,25.93a39.62,39.62,0,0,1,5.65.49,31.54,31.54,0,0,0,4.19.4,12.05,12.05,0,0,0,3.78-.71c.27,0,.4.2.4.61a3.46,3.46,0,0,1-.89,1.8c-.65.78-1.23,1.17-1.76,1.17a3.43,3.43,0,0,1-.87-.15q-7.38-2-9.55-2a14,14,0,0,0-2.45.28q-1.23,0-1.23-1a.6.6,0,0,1,.18-.33,10,10,0,0,0,.92-1.32,7.44,7.44,0,0,0,.74-1.88c.09-.68.39-1,.92-1m-1.23-5c1.43,0,3.51.06,6.23.2a1.87,1.87,0,0,1,.92-.41c1.09,0,1.64.41,1.64,1.22,0,.14-.19.31-.56.53A15.63,15.63,0,0,0,315,22a1.43,1.43,0,0,1-1.05.43c-.61,0-.92-.23-.92-.71a31.76,31.76,0,0,1,2.45-2.81q-3.81,0-6.54.27c-.47,0-.71-.16-.71-.5,0-.95.54-1.42,1.63-1.42m-7.56,7.51a7.43,7.43,0,0,0,1.44.2c.9,0,2-.74,3.37-2.23.27,0,.4.18.4.53a6.34,6.34,0,0,1-1.38,2.62c-.9,1.35-1.7,2-2.39,2a1.46,1.46,0,0,1-1.23-.66,2.93,2.93,0,0,1-.61-1.86c0-.42.13-.63.4-.63m10.83-14c.43,0,.66.17.69.53a1.06,1.06,0,0,1,.64.25,49.14,49.14,0,0,0,5.06,3A16.45,16.45,0,0,0,322.86,16a17.26,17.26,0,0,0,2.19.38c.41,0,.61.16.61.43s-.48.92-1.45,1.53a3.71,3.71,0,0,1-1.71.38,2.7,2.7,0,0,1-1.48-.43c-.67-.46-1.73-1.25-3.19-2.37-2.46-1.93-4-3.11-4.7-3.55a40.18,40.18,0,0,1-4.6,4.09,28.84,28.84,0,0,1-3,1.88,3.6,3.6,0,0,1-1.38.38A2.84,2.84,0,0,1,302.4,18c-.76-.58-1.14-1.07-1.14-1.48s.31-.4.74-.4a11.45,11.45,0,0,0,3-.48A17.6,17.6,0,0,0,309,13.75,22.09,22.09,0,0,0,312.49,11a3.19,3.19,0,0,1,.61-.2" transform="translate(-11.11 -8.7)"/>
        <path id="Fill-11" class="cls-4" d="M343.45,24a1.48,1.48,0,0,1,.51.1c.2,0,.31-.07.31-.2v-.59c0-.15-.07-.23-.21-.23a3.55,3.55,0,0,0-.92-.1c-.27,0-.41.08-.41.23a.93.93,0,0,1-.2.58c0,.21.14.31.41.31a1.19,1.19,0,0,1,.51-.1m.2-7.92a14.09,14.09,0,0,1,1.64.1q.3,0,.3-.21a1.71,1.71,0,0,1,.11-.71c0-.13-.11-.2-.31-.2-.78-.07-1.94-.1-3.47-.1-.34,0-.52.07-.52.2a1.27,1.27,0,0,1-.2.71c0,.21.14.31.41.31a17.37,17.37,0,0,1,2-.1m-1.84,5.58a1.23,1.23,0,0,1,.46.1,1.72,1.72,0,0,0,.67.1h.74a2.07,2.07,0,0,1,.59.11,2.11,2.11,0,0,0,.81-.21c.48,0,.72.27.72.82a.42.42,0,0,1-.05.1,1,1,0,0,0-.11.45c0,.33-.05.66-.05,1v.46c0,.56-.19.83-.58.83a6.28,6.28,0,0,0-1.56-.22,7.48,7.48,0,0,0-1.2.05,1.32,1.32,0,0,0-.52.17c-.42,0-.63-.24-.63-.73a5.5,5.5,0,0,0,.2-1.32,3.32,3.32,0,0,0-.2-1,.63.63,0,0,1,.71-.71m1.84,4.17c.82,0,1.74,0,2.76.1.2,0,.31-.07.31-.21,0-1.93,0-3.31.1-4.16,0-.14-.14-.2-.41-.2-1.26-.07-3.1-.1-5.51-.1-.41,0-.62.06-.62.2,0,1.49,0,2.88-.1,4.16,0,.21.14.31.41.31.88-.07,1.91-.1,3.06-.1m-4.49-6a1.66,1.66,0,0,1,.59.13,2.51,2.51,0,0,0,.84.1H344c.77,0,1.67,0,2.71.1a3.79,3.79,0,0,0,1.12-.2.8.8,0,0,1,.92.89,1,1,0,0,1-.08.23,3,3,0,0,0-.2,1.11,18.47,18.47,0,0,0-.13,2.29c0,.47,0,1.13.1,2,0,.59-.27.89-.81.89a30.23,30.23,0,0,0-4-.31,28.12,28.12,0,0,0-3.19.11,7.56,7.56,0,0,0-1.4.2c-.55,0-.82-.23-.82-.69a17.25,17.25,0,0,0,.31-3,16.21,16.21,0,0,0-.31-2.89.82.82,0,0,1,.92-.92m1.12-6.27a2.09,2.09,0,0,1,.59.1,3.65,3.65,0,0,0,.87.08h2.12a16.58,16.58,0,0,1,1.73.1,3.91,3.91,0,0,0,1-.18.81.81,0,0,1,.92.92l-.07.07a1.17,1.17,0,0,0-.21.51,5,5,0,0,0-.12,1.09,1.53,1.53,0,0,0,.1.46c0,.59-.27.89-.82.89a13,13,0,0,0-2.25-.28v.18a.4.4,0,0,1-.07.2.47.47,0,0,0,0,.1c1.6-.07,3-.1,4.11-.1l1.73-.2a.45.45,0,0,1,.51.51,1.5,1.5,0,0,1-.53,1.06,2.21,2.21,0,0,1-1.51.66,17.27,17.27,0,0,0-2.37-.35c-1.16-.11-2.18-.16-3-.16a28.91,28.91,0,0,0-3.32.16,18.12,18.12,0,0,0-2.2.35c-.61,0-.92-.26-.92-.79a1.22,1.22,0,0,1,.46-.81,1.41,1.41,0,0,1,.87-.43,4.4,4.4,0,0,1,1,.13,15.36,15.36,0,0,0,1.84.1l1.79-.08V17.3a9.25,9.25,0,0,0-1.13.08,4.4,4.4,0,0,0-1,.2q-.81,0-.81-.69a7,7,0,0,0,.2-1.52,3.73,3.73,0,0,0-.2-1,.71.71,0,0,1,.81-.79m3.17,14.3c2.21,0,4.66.06,7.35.2.21,0,.31-.1.31-.3q0-9.89.1-14.2c0-.22-.1-.33-.31-.33q-4.87-.11-14.3-.1c-.41,0-.61.11-.61.33q0,7.59-.2,14.22c0,.25.17.38.51.38,2-.13,4.43-.2,7.15-.2m-8.78-16.43a2.48,2.48,0,0,1,.66.08,3.82,3.82,0,0,0,1,.1h8.27q2.79,0,6.54.1a11.09,11.09,0,0,0,1.23-.1c.67,0,1,.31,1,.94,0,.06,0,.24-.08.53a22.75,22.75,0,0,0-.23,2.94q-.1,2.82-.1,6,0,2.46.1,6.65c0,.68-.31,1-.92,1q-4.8-.33-8.68-.33-4.8,0-6.08.13a22.38,22.38,0,0,0-2.7.3c-.62,0-.92-.34-.92-1q.3-4.39.3-7.67c0-2.46-.1-5.38-.3-8.79a.8.8,0,0,1,.92-.91" transform="translate(-11.11 -8.7)"/>
        <path id="Fill-13" class="cls-4" d="M374.46,13.54l0,.94c.88,0,1.83.12,2.83.21,0-.26,0-.48,0-.67s-.17-.38-.51-.38A19.29,19.29,0,0,0,374.46,13.54Zm-.1,2.54,0,.64c.63,0,1.34,0,2.12.07.51,0,.75-.14.72-.43v-.08C376.27,16.18,375.33,16.11,374.36,16.08Zm-4.27,9.62h6.57l.15,0a3.83,3.83,0,0,1,.05-.63c0-.14-.1-.21-.31-.21-1.32-.07-3.27-.1-5.82-.1-.41,0-.61.07-.61.2S370.11,25.48,370.09,25.7Zm3,2.44c1,0,2.15,0,3.37.1.21,0,.31-.1.31-.3v-1a62.8,62.8,0,0,0-6.77.31,5.32,5.32,0,0,1-.08.61c0,.27.18.4.52.4C371.18,28.18,372.06,28.14,373.08,28.14Zm-4.29-4.95a2.51,2.51,0,0,1,.66.1,3.54,3.54,0,0,0,1,.1H374c.78,0,1.71,0,2.78.08a5.35,5.35,0,0,0,1.22-.18.9.9,0,0,1,1,1,1.2,1.2,0,0,1-.08.18,2.26,2.26,0,0,0-.23.91,16.57,16.57,0,0,0-.1,1.93,13.16,13.16,0,0,0,.1,1.45c0,.67-.31,1-.92,1a37.74,37.74,0,0,0-4.7-.33,19.13,19.13,0,0,0-3,.13,9.23,9.23,0,0,0-1.33.3.82.82,0,0,1-.92-.94,12,12,0,0,0,.31-2.53,10.62,10.62,0,0,0-.31-2.34A.8.8,0,0,1,368.79,23.19Zm3.48-11a.93.93,0,0,1,1-1c.8,0,1.2.35,1.22,1l2.66.1a7.63,7.63,0,0,0,1.12-.12c.89,0,1.33.23,1.33.71q-.21,1-.36,2c1.24.1,2.32.15,3.22.15a9.92,9.92,0,0,0,2.45-.38c.21,0,.31.26.31.79a2.57,2.57,0,0,1-.82,1.65,1.51,1.51,0,0,1-1,.58,5.2,5.2,0,0,1-1.84-.43,19.72,19.72,0,0,0-2.42-.69c0,.27,0,.55,0,.82-.05.61-.46.91-1.23.91a31.2,31.2,0,0,0-3.6-.2l0,.94h3c.63,0,1,.28,1,.68,0,.68-.39,1-1.15,1l-2.89-.23-.05.74h5.59c.61.06.92.3.92.71,0,.67-.37,1-1.12,1l-6.64-.3a40.66,40.66,0,0,0-6.23.4.63.63,0,0,1-.72-.71,1.23,1.23,0,0,1,.34-.86.72.72,0,0,1,.58-.33l1,.08h4.57v-.82a14.4,14.4,0,0,0-3.24.41.62.62,0,0,1-.71-.69,1.3,1.3,0,0,1,.33-.88.73.73,0,0,1,.59-.33l1,.1h2v-.92c-1.53,0-2.9.13-4.11.28a.63.63,0,0,1-.71-.71c0-.44.17-.7.51-.79a33.56,33.56,0,0,1,4.19-.2h.07v-.63c-1.68,0-3.33.1-4.93.25a20.8,20.8,0,0,0-4.64,1.27c-.75,0-1.13-.26-1.13-.79a1.07,1.07,0,0,1,.46-.86,2,2,0,0,1,1.48-.58,75.86,75.86,0,0,1,8.74-.92l0-.89c-1.31.05-2.72.15-4.21.28-.41,0-.61-.24-.61-.71a.72.72,0,0,1,.71-.79Z" transform="translate(-11.11 -8.7)"/>
        <path id="Fill-15" class="cls-4" d="M406.6,27.15a.65.65,0,0,1,.2,0l4.08.1a3,3,0,0,1,.62.05,9.62,9.62,0,0,1,.2-2.08.36.36,0,0,0-.41-.41c-1.27,0-2.84,0-4.69.1v2.26Zm-.08-6.88a9,9,0,0,1,1-.05c.53,0,1.25,0,2.15.1.46,0,.66-.07.61-.23.05-.57.09-1,.1-1.39s-.17-.41-.51-.41a2.74,2.74,0,0,0-.92-.1,13.6,13.6,0,0,0-2.52.25C406.47,18.88,406.5,19.49,406.52,20.27Zm-1.15-3.2a1.27,1.27,0,0,1,.28,0,.84.84,0,0,1,.54-.21l1.83-.1,2.25.1a6.83,6.83,0,0,0,1-.1q1.23,0,1.23.69a12.83,12.83,0,0,0-.51,3.45,1,1,0,0,1-1.13,1,6.62,6.62,0,0,0-1.83-.21,12.63,12.63,0,0,0-2.51.23c0,.37,0,.76,0,1.14a1.39,1.39,0,0,1,.33-.05l4.39.23a9.66,9.66,0,0,1,1.43-.23c.82,0,1.23.38,1.23,1.12a12.4,12.4,0,0,0-.59,1.75c0,.36,0,1,0,2,0,.56-.31.84-.92.84a1,1,0,0,1-.51-.11,28.91,28.91,0,0,0-5.44.36,2.66,2.66,0,0,1-.08.33,1,1,0,0,1-1,.53.73.73,0,0,1-.82-.83q.21-2.41.21-5a45.36,45.36,0,0,0-.51-6C404.24,17.41,404.62,17.07,405.37,17.07Zm-8.27-2.51,1.84.1a4.15,4.15,0,0,1,1.17.15.54.54,0,0,1,.46.54c0,.47-.2.71-.61.71a9.84,9.84,0,0,0-3.37.4c-.55,0-.82-.26-.82-.78a1.16,1.16,0,0,1,.33-.72A1.32,1.32,0,0,1,397.1,14.56Zm-1.64,3.93v.74a.76.76,0,0,1,.21,0l3.57.11a3.93,3.93,0,0,1,.49,0c0-.15,0-.29,0-.41a.46.46,0,0,0-.51-.53,4.08,4.08,0,0,0-1.12-.1A19.78,19.78,0,0,0,395.46,18.49Zm0,2.59v.49a5.87,5.87,0,0,1,1.38-.13c.56,0,1.31,0,2.25.1.44,0,.65-.13.63-.38v-.43A20.64,20.64,0,0,0,395.41,21.08Zm1.79-4.39,2.45.2a3.57,3.57,0,0,0,1-.2c.82,0,1.23.26,1.23.79a22.79,22.79,0,0,0-.51,4.8,1,1,0,0,1-1.13,1,17.1,17.1,0,0,0-4.93.18c0,.34,0,.69-.05,1a.62.62,0,0,1,.18,0l4.29.1a4.19,4.19,0,0,1,1.2.17.55.55,0,0,1,.44.56c0,.46-.21.69-.62.69a31.28,31.28,0,0,0-5.56.35c0,.22,0,.44,0,.66s.17.41.51.41a12.59,12.59,0,0,1,2.4-.2c.52,0,1.56,0,3.11-.1.34,0,.51.14.51.43a1.33,1.33,0,0,1-.43,1.11,1.71,1.71,0,0,1-1,.28c-.76-.06-1.39-.1-1.86-.1a21.26,21.26,0,0,0-3,.21,4.22,4.22,0,0,0-1.3.3,1.38,1.38,0,0,1-.38.1c-.48,0-.72-.26-.72-.79a10.51,10.51,0,0,1,.33-2,30.89,30.89,0,0,0,.18-3.4c0-.71,0-1.73-.07-3.05s-.13-2.29-.13-2.74.27-.51.81-.51a3,3,0,0,1,.44,0,1,1,0,0,1,.38-.11Zm.82-5.61c.54,0,.81.24.81.71v.1h.11a1.24,1.24,0,0,1,.71.43l1.84,1.32a1.38,1.38,0,0,1,.23.38c.08-.38.41-.58,1-.58a.8.8,0,0,1,.59.18,1,1,0,0,0,.54.2,26.79,26.79,0,0,1,3.47-.18h.31a4.87,4.87,0,0,0-.41-1.22,1.18,1.18,0,0,1,1.33-1.34c.95,0,1.43.41,1.43,1.24a13.38,13.38,0,0,0-.41,1.35c1.53.07,2.89.19,4.08.35l1.33-.3c.61,0,.92.24.92.71a.79.79,0,0,1-.2.46,7.06,7.06,0,0,0-.72,2.59.72.72,0,0,1-.81.81c-.55,0-.82-.24-.82-.71a9.43,9.43,0,0,1,.2-2,18.31,18.31,0,0,0-4.29-.43,17.5,17.5,0,0,0-5.31.71,6,6,0,0,1-.2,2.06.9.9,0,0,1-.92.48c-.41,0-.62-.13-.62-.4a13.19,13.19,0,0,0-.4-3.43c0,.32-.24.48-.62.48a1.53,1.53,0,0,1-.81-.3l-2-1.2a1,1,0,0,1-.33-.4,20.11,20.11,0,0,1-3.58,2.94,2.82,2.82,0,0,1-1.53.61,2,2,0,0,1-1.22-.53,1.33,1.33,0,0,1-.62-1c0-.3.21-.46.62-.48a10.54,10.54,0,0,0,3.11-1.17,9.92,9.92,0,0,0,2.81-2.18A.72.72,0,0,1,398,11.08Z" transform="translate(-11.11 -8.7)"/>
      </g>
      <g id="EN">
        <path id="Fill-17" d="M67,46.38l1,.24a3.22,3.22,0,0,1-1.08,1.78,3,3,0,0,1-1.89.61,3.42,3.42,0,0,1-1.88-.47A3,3,0,0,1,62,47.17a4.7,4.7,0,0,1-.38-1.92,4.31,4.31,0,0,1,.42-2A3,3,0,0,1,63.22,42,3.57,3.57,0,0,1,65,41.6a3,3,0,0,1,1.8.55,2.85,2.85,0,0,1,1,1.54l-.93.22a2.23,2.23,0,0,0-.72-1.14,2,2,0,0,0-1.19-.35,2.34,2.34,0,0,0-1.38.39,2.13,2.13,0,0,0-.78,1.06,4.34,4.34,0,0,0-.23,1.38,4.27,4.27,0,0,0,.27,1.59,1.94,1.94,0,0,0,.83,1,2.26,2.26,0,0,0,1.21.34,2,2,0,0,0,1.35-.46A2.35,2.35,0,0,0,67,46.38" transform="translate(-11.11 -8.7)"/>
        <path id="Fill-19" d="M69.91,48.89V41.73h.88V44.3a2,2,0,0,1,1.55-.72,2.08,2.08,0,0,1,1,.23,1.28,1.28,0,0,1,.61.63,2.93,2.93,0,0,1,.18,1.16v3.29h-.87V45.6a1.36,1.36,0,0,0-.29-1,1.06,1.06,0,0,0-.81-.3,1.46,1.46,0,0,0-.73.2,1.13,1.13,0,0,0-.49.55,2.47,2.47,0,0,0-.15,1v2.84Z" transform="translate(-11.11 -8.7)"/>
        <path id="Fill-21" d="M79.82,48.89v-.77a1.89,1.89,0,0,1-1.65.88,2.19,2.19,0,0,1-.85-.17,1.47,1.47,0,0,1-.59-.44,1.64,1.64,0,0,1-.27-.66,4,4,0,0,1-.06-.82V43.7h.88v2.88a4.57,4.57,0,0,0,.06.92.87.87,0,0,0,.35.55,1.1,1.1,0,0,0,.66.2,1.41,1.41,0,0,0,.74-.21,1.05,1.05,0,0,0,.49-.55,2.65,2.65,0,0,0,.15-1V43.7h.88v5.19Z" transform="translate(-11.11 -8.7)"/>
        <path id="Fill-23" d="M82.93,48.89V43.7h.79v.74a1.89,1.89,0,0,1,1.65-.86,2.25,2.25,0,0,1,.87.17,1.43,1.43,0,0,1,.59.44,1.72,1.72,0,0,1,.27.65,5.4,5.4,0,0,1,.05.86v3.19h-.88V45.73a2.32,2.32,0,0,0-.11-.8.79.79,0,0,0-.36-.43,1.2,1.2,0,0,0-.61-.15,1.4,1.4,0,0,0-1,.35,1.77,1.77,0,0,0-.41,1.35v2.84Z" transform="translate(-11.11 -8.7)"/>
        <path id="Fill-25" d="M90,46.2a2.25,2.25,0,0,0,.41,1.49,1.28,1.28,0,0,0,1,.47,1.31,1.31,0,0,0,1-.47,2.19,2.19,0,0,0,.41-1.46,2.15,2.15,0,0,0-.42-1.44,1.34,1.34,0,0,0-1-.48,1.27,1.27,0,0,0-1,.48A2.14,2.14,0,0,0,90,46.2m-.73,3.12.86.12a.77.77,0,0,0,.3.58,1.45,1.45,0,0,0,.89.24,1.57,1.57,0,0,0,.94-.24,1.21,1.21,0,0,0,.45-.68,5,5,0,0,0,.06-1.13,1.8,1.8,0,0,1-1.43.68,2,2,0,0,1-1.66-.77,3,3,0,0,1-.58-1.86,3.45,3.45,0,0,1,.27-1.37,2.12,2.12,0,0,1,.77-1,2.09,2.09,0,0,1,1.2-.35,1.86,1.86,0,0,1,1.52.75V43.7h.81v4.48a4.16,4.16,0,0,1-.25,1.72,1.77,1.77,0,0,1-.78.8,2.8,2.8,0,0,1-1.32.29,2.46,2.46,0,0,1-1.49-.42,1.39,1.39,0,0,1-.56-1.25" transform="translate(-11.11 -8.7)"/>
        <path id="Fill-27" d="M101.63,48.89v-3l-2.76-4.13H100l1.41,2.16c.26.4.5.8.73,1.21.21-.38.47-.8.78-1.27l1.38-2.1h1.11l-2.86,4.13v3Z" transform="translate(-11.11 -8.7)"/>
        <path id="Fill-29" d="M110,48.89v-.77a1.89,1.89,0,0,1-1.65.88,2.19,2.19,0,0,1-.85-.17,1.47,1.47,0,0,1-.59-.44,1.64,1.64,0,0,1-.27-.66,4,4,0,0,1-.06-.82V43.7h.88v2.88a4.57,4.57,0,0,0,.06.92.87.87,0,0,0,.35.55,1.1,1.1,0,0,0,.66.2,1.41,1.41,0,0,0,.74-.21,1.05,1.05,0,0,0,.49-.55,2.65,2.65,0,0,0,.15-1V43.7h.88v5.19Z" transform="translate(-11.11 -8.7)"/>
        <path id="Fill-31" d="M116.39,46.28a6.67,6.67,0,0,1-1.43.34,3.64,3.64,0,0,0-.77.17.83.83,0,0,0-.35.29.77.77,0,0,0,.15,1,1.14,1.14,0,0,0,.78.23,1.77,1.77,0,0,0,.9-.22,1.37,1.37,0,0,0,.58-.61,2,2,0,0,0,.14-.88v-.32Zm.08,2a3.38,3.38,0,0,1-.94.58,2.61,2.61,0,0,1-1,.17,1.9,1.9,0,0,1-1.31-.41,1.38,1.38,0,0,1-.46-1.07,1.4,1.4,0,0,1,.17-.7,1.56,1.56,0,0,1,.45-.5,2.2,2.2,0,0,1,.64-.29,6.85,6.85,0,0,1,.78-.13,8.94,8.94,0,0,0,1.56-.3c0-.13,0-.2,0-.23a1,1,0,0,0-.25-.76,1.48,1.48,0,0,0-1-.3,1.52,1.52,0,0,0-.92.22,1.32,1.32,0,0,0-.43.77l-.86-.12a2,2,0,0,1,.38-.89,1.65,1.65,0,0,1,.78-.52,3.52,3.52,0,0,1,1.18-.19,3.13,3.13,0,0,1,1.07.16,1.34,1.34,0,0,1,.61.39,1.29,1.29,0,0,1,.28.6,5,5,0,0,1,0,.81v1.18a11.75,11.75,0,0,0,.06,1.55,2.09,2.09,0,0,0,.22.62h-.92A1.83,1.83,0,0,1,116.47,48.25Z" transform="translate(-11.11 -8.7)"/>
        <path id="Fill-33" d="M119.6,48.89V43.7h.79v.74a1.87,1.87,0,0,1,1.65-.86,2.2,2.2,0,0,1,.86.17,1.37,1.37,0,0,1,.59.44,1.72,1.72,0,0,1,.27.65,5.4,5.4,0,0,1,0,.86v3.19h-.88V45.73a2.36,2.36,0,0,0-.1-.8.85.85,0,0,0-.37-.43,1.2,1.2,0,0,0-.61-.15,1.41,1.41,0,0,0-1,.35,1.77,1.77,0,0,0-.41,1.35v2.84Z" transform="translate(-11.11 -8.7)"/>
        <path id="Fill-35" d="M135.06,46.38l.94.24a3.21,3.21,0,0,1-1.07,1.78A3,3,0,0,1,133,49a3.42,3.42,0,0,1-1.88-.47,2.92,2.92,0,0,1-1.11-1.37,4.87,4.87,0,0,1-.38-1.92,4.31,4.31,0,0,1,.43-2A3,3,0,0,1,131.32,42a3.5,3.5,0,0,1,1.73-.44,3,3,0,0,1,1.81.55,2.85,2.85,0,0,1,1,1.54l-.93.22a2.29,2.29,0,0,0-.72-1.14,2,2,0,0,0-1.2-.35,2.34,2.34,0,0,0-1.38.39,2.13,2.13,0,0,0-.78,1.06,4.63,4.63,0,0,0-.22,1.38,4.27,4.27,0,0,0,.27,1.59,1.92,1.92,0,0,0,.82,1,2.29,2.29,0,0,0,1.22.34,2,2,0,0,0,1.35-.46,2.35,2.35,0,0,0,.75-1.36" transform="translate(-11.11 -8.7)"/>
        <path id="Fill-37" d="M138,48.89V41.73h.88V44.3a1.94,1.94,0,0,1,1.55-.72,2.11,2.11,0,0,1,1,.23,1.38,1.38,0,0,1,.61.63,2.93,2.93,0,0,1,.18,1.16v3.29h-.88V45.6a1.36,1.36,0,0,0-.28-1,1.06,1.06,0,0,0-.81-.3,1.49,1.49,0,0,0-.74.2,1.18,1.18,0,0,0-.49.55,2.71,2.71,0,0,0-.14,1v2.84Z" transform="translate(-11.11 -8.7)"/>
        <path id="Fill-39" d="M144.51,48.89V43.7h.79v.79a2.16,2.16,0,0,1,.56-.73,1,1,0,0,1,.56-.18,1.74,1.74,0,0,1,.91.29l-.31.81a1.21,1.21,0,0,0-.64-.19.87.87,0,0,0-.52.17,1,1,0,0,0-.33.48,3.42,3.42,0,0,0-.14,1v2.71h-.88Z" transform="translate(-11.11 -8.7)"/>
        <path id="Fill-41" d="M148.8,48.89h.88V43.7h-.88Zm0-6.15h.88v-1h-.88Z" transform="translate(-11.11 -8.7)"/>
        <path id="Fill-43" d="M151.62,47.34l.87-.14a1.21,1.21,0,0,0,.4.8,1.42,1.42,0,0,0,.94.28,1.36,1.36,0,0,0,.9-.25.73.73,0,0,0,.29-.57.54.54,0,0,0-.26-.47,3.66,3.66,0,0,0-.9-.3,9.14,9.14,0,0,1-1.34-.42,1.36,1.36,0,0,1-.56-.5,1.29,1.29,0,0,1-.2-.69,1.45,1.45,0,0,1,.16-.65,1.57,1.57,0,0,1,.44-.49,1.73,1.73,0,0,1,.56-.25,2.63,2.63,0,0,1,.76-.11,3,3,0,0,1,1.07.18,1.47,1.47,0,0,1,.68.48,1.84,1.84,0,0,1,.3.8l-.86.12a.94.94,0,0,0-.34-.63,1.22,1.22,0,0,0-.79-.22,1.38,1.38,0,0,0-.86.2.57.57,0,0,0-.27.47.48.48,0,0,0,.11.3.74.74,0,0,0,.34.24l.77.22a10.7,10.7,0,0,1,1.31.41,1.37,1.37,0,0,1,.57.46,1.28,1.28,0,0,1,.21.75,1.47,1.47,0,0,1-.25.83,1.65,1.65,0,0,1-.74.6,2.73,2.73,0,0,1-1.1.21,2.46,2.46,0,0,1-1.54-.42,2,2,0,0,1-.67-1.24" transform="translate(-11.11 -8.7)"/>
        <path id="Fill-44-2" data-name="Fill-44" d="M159.84,48.1l.13.78a3.39,3.39,0,0,1-.67.07,1.51,1.51,0,0,1-.74-.15.82.82,0,0,1-.37-.39,3.2,3.2,0,0,1-.11-1v-3h-.64V43.7h.64V42.42l.88-.53V43.7h.88v.69H159v3a1.6,1.6,0,0,0,0,.48.35.35,0,0,0,.15.17.6.6,0,0,0,.3.07l.39,0" transform="translate(-11.11 -8.7)"/>
        <path id="Fill-45" d="M161.65,48.89h.88V43.7h-.88Zm0-6.15h.88v-1h-.88Z" transform="translate(-11.11 -8.7)"/>
        <path id="Fill-46-2" data-name="Fill-46" d="M168.13,46.28a7,7,0,0,1-1.44.34,3.51,3.51,0,0,0-.76.17.77.77,0,0,0-.35.29.77.77,0,0,0,.15,1,1.09,1.09,0,0,0,.77.23,1.83,1.83,0,0,0,.91-.22,1.42,1.42,0,0,0,.58-.61,2.17,2.17,0,0,0,.14-.88v-.32Zm.07,2a3.12,3.12,0,0,1-.94.58,2.57,2.57,0,0,1-1,.17,1.92,1.92,0,0,1-1.31-.41,1.38,1.38,0,0,1-.46-1.07,1.4,1.4,0,0,1,.18-.7,1.36,1.36,0,0,1,.45-.5,2.26,2.26,0,0,1,.63-.29,6.85,6.85,0,0,1,.78-.13,9.3,9.3,0,0,0,1.57-.3v-.23a1,1,0,0,0-.24-.76,1.49,1.49,0,0,0-1-.3,1.51,1.51,0,0,0-.91.22,1.32,1.32,0,0,0-.44.77l-.86-.12a2.15,2.15,0,0,1,.39-.89,1.67,1.67,0,0,1,.77-.52,3.56,3.56,0,0,1,1.18-.19,3.24,3.24,0,0,1,1.08.16,1.34,1.34,0,0,1,.61.39,1.38,1.38,0,0,1,.27.6,4.68,4.68,0,0,1,.05.81v1.18a15,15,0,0,0,0,1.55,2.12,2.12,0,0,0,.23.62h-.92A2.08,2.08,0,0,1,168.2,48.25Z" transform="translate(-11.11 -8.7)"/>
        <path id="Fill-47" d="M171.33,48.89V43.7h.79v.74a1.87,1.87,0,0,1,1.65-.86,2.2,2.2,0,0,1,.86.17,1.31,1.31,0,0,1,.59.44,1.91,1.91,0,0,1,.28.65,5.76,5.76,0,0,1,0,.86v3.19h-.87V45.73a2.32,2.32,0,0,0-.11-.8.88.88,0,0,0-.36-.43,1.23,1.23,0,0,0-.61-.15,1.4,1.4,0,0,0-1,.35,1.77,1.77,0,0,0-.41,1.35v2.84Z" transform="translate(-11.11 -8.7)"/>
        <path id="Fill-48-2" data-name="Fill-48" d="M186.38,41.73h1v4.14a4.75,4.75,0,0,1-.25,1.71,2,2,0,0,1-.88,1,3.06,3.06,0,0,1-1.67.4,3.48,3.48,0,0,1-1.65-.35,2,2,0,0,1-.91-1,4.87,4.87,0,0,1-.27-1.8V41.73h1v4.13a3.89,3.89,0,0,0,.17,1.37,1.27,1.27,0,0,0,.6.69,2.15,2.15,0,0,0,1,.23,2,2,0,0,0,1.49-.47,2.75,2.75,0,0,0,.44-1.82V41.73Z" transform="translate(-11.11 -8.7)"/>
        <path id="Fill-49" d="M189.74,48.89V43.7h.79v.74a1.88,1.88,0,0,1,1.65-.86,2.16,2.16,0,0,1,.86.17,1.31,1.31,0,0,1,.59.44,1.73,1.73,0,0,1,.28.65,5.4,5.4,0,0,1,.05.86v3.19h-.88V45.73a2.32,2.32,0,0,0-.11-.8.83.83,0,0,0-.36-.43,1.2,1.2,0,0,0-.61-.15,1.4,1.4,0,0,0-1,.35,1.77,1.77,0,0,0-.41,1.35v2.84Z" transform="translate(-11.11 -8.7)"/>
        <path id="Fill-50-2" data-name="Fill-50" d="M196.26,48.89h.88V43.7h-.88Zm0-6.15h.88v-1h-.88Z" transform="translate(-11.11 -8.7)"/>
        <path id="Fill-51" d="M200.87,48.89l-2-5.19h.93l1.11,3.11c.12.33.23.68.34,1,.07-.27.18-.6.32-1l1.16-3.16h.9l-2,5.19Z" transform="translate(-11.11 -8.7)"/>
        <path id="Fill-52-2" data-name="Fill-52" d="M206,45.8h2.9a1.73,1.73,0,0,0-.34-1,1.36,1.36,0,0,0-1.08-.5,1.38,1.38,0,0,0-1,.4A1.59,1.59,0,0,0,206,45.8m2.89,1.42.9.11a2.16,2.16,0,0,1-.79,1.23,2.7,2.7,0,0,1-3.29-.26,2.75,2.75,0,0,1-.67-2,2.85,2.85,0,0,1,.68-2,2.26,2.26,0,0,1,1.75-.73,2.2,2.2,0,0,1,1.69.71,2.81,2.81,0,0,1,.66,2v.24H206a2,2,0,0,0,.48,1.31,1.46,1.46,0,0,0,1.09.45,1.31,1.31,0,0,0,.82-.25,1.73,1.73,0,0,0,.55-.81" transform="translate(-11.11 -8.7)"/>
        <path id="Fill-53" d="M211.88,48.89V43.7h.79v.79a2.16,2.16,0,0,1,.56-.73,1,1,0,0,1,.56-.18,1.68,1.68,0,0,1,.9.29l-.3.81a1.21,1.21,0,0,0-.64-.19.87.87,0,0,0-.52.17,1,1,0,0,0-.33.48,3.42,3.42,0,0,0-.14,1v2.71h-.88Z" transform="translate(-11.11 -8.7)"/>
        <path id="Fill-54" d="M215.82,47.34l.87-.14a1.17,1.17,0,0,0,.4.8,1.42,1.42,0,0,0,.94.28,1.36,1.36,0,0,0,.9-.25.73.73,0,0,0,.29-.57A.54.54,0,0,0,219,47a3.66,3.66,0,0,0-.9-.3,9.14,9.14,0,0,1-1.34-.42,1.25,1.25,0,0,1-.56-.5,1.29,1.29,0,0,1-.2-.69,1.45,1.45,0,0,1,.16-.65,1.67,1.67,0,0,1,.43-.49,2,2,0,0,1,.56-.25,2.68,2.68,0,0,1,.76-.11,3,3,0,0,1,1.08.18,1.47,1.47,0,0,1,.68.48,2,2,0,0,1,.3.8l-.86.12a.94.94,0,0,0-.34-.63,1.24,1.24,0,0,0-.79-.22,1.41,1.41,0,0,0-.87.2.59.59,0,0,0-.26.47.48.48,0,0,0,.11.3.74.74,0,0,0,.34.24l.77.22a10.7,10.7,0,0,1,1.31.41,1.37,1.37,0,0,1,.57.46,1.28,1.28,0,0,1,.21.75,1.47,1.47,0,0,1-.25.83,1.65,1.65,0,0,1-.74.6A2.73,2.73,0,0,1,218,49a2.46,2.46,0,0,1-1.54-.42,1.91,1.91,0,0,1-.67-1.24" transform="translate(-11.11 -8.7)"/>
        <path id="Fill-55" d="M222.12,48.89H223V43.7h-.88Zm0-6.15H223v-1h-.88Z" transform="translate(-11.11 -8.7)"/>
        <path id="Fill-56" d="M227.21,48.1l.13.78a3.39,3.39,0,0,1-.67.07,1.49,1.49,0,0,1-.74-.15.82.82,0,0,1-.37-.39,3.2,3.2,0,0,1-.11-1v-3h-.64V43.7h.64V42.42l.87-.53V43.7h.89v.69h-.89v3a1.49,1.49,0,0,0,.05.48.35.35,0,0,0,.15.17.6.6,0,0,0,.3.07l.39,0" transform="translate(-11.11 -8.7)"/>
        <path id="Fill-57" d="M229,50.88l-.1-.82a2.05,2.05,0,0,0,.5.08,1,1,0,0,0,.47-.1.84.84,0,0,0,.29-.27,3.66,3.66,0,0,0,.27-.66s0-.12.08-.21l-2-5.2h.95l1.08,3c.14.39.26.79.37,1.2a12.33,12.33,0,0,1,.36-1.18l1.11-3h.88l-2,5.27a10.79,10.79,0,0,1-.5,1.18,1.73,1.73,0,0,1-.53.64,1.3,1.3,0,0,1-.73.2,1.58,1.58,0,0,1-.56-.11" transform="translate(-11.11 -8.7)"/>
        <path id="Fill-58" d="M243.92,46.38l.94.24a3.15,3.15,0,0,1-1.07,1.78,3,3,0,0,1-1.89.61,3.42,3.42,0,0,1-1.88-.47,3,3,0,0,1-1.11-1.37,4.87,4.87,0,0,1-.38-1.92,4.31,4.31,0,0,1,.43-2A3,3,0,0,1,240.18,42a3.5,3.5,0,0,1,1.73-.44,3,3,0,0,1,1.81.55,2.85,2.85,0,0,1,1,1.54l-.93.22a2.29,2.29,0,0,0-.72-1.14,1.94,1.94,0,0,0-1.2-.35,2.29,2.29,0,0,0-1.37.39,2.07,2.07,0,0,0-.78,1.06,4.34,4.34,0,0,0-.23,1.38,4.27,4.27,0,0,0,.27,1.59,2,2,0,0,0,.82,1,2.29,2.29,0,0,0,1.22.34,2,2,0,0,0,1.35-.46,2.35,2.35,0,0,0,.75-1.36" transform="translate(-11.11 -8.7)"/>
        <path id="Fill-59" d="M246.87,48.89V41.73h.88V44.3a1.94,1.94,0,0,1,1.55-.72,2.11,2.11,0,0,1,1,.23,1.33,1.33,0,0,1,.61.63,2.93,2.93,0,0,1,.18,1.16v3.29h-.88V45.6a1.36,1.36,0,0,0-.28-1,1.06,1.06,0,0,0-.81-.3,1.49,1.49,0,0,0-.74.2,1.18,1.18,0,0,0-.49.55,2.71,2.71,0,0,0-.14,1v2.84Z" transform="translate(-11.11 -8.7)"/>
        <path id="Fill-60" d="M256.69,46.28a7,7,0,0,1-1.44.34,3.51,3.51,0,0,0-.76.17.77.77,0,0,0-.35.29.73.73,0,0,0-.12.41.76.76,0,0,0,.26.59,1.14,1.14,0,0,0,.78.23,1.77,1.77,0,0,0,.9-.22,1.39,1.39,0,0,0,.59-.61,2.17,2.17,0,0,0,.14-.88v-.32Zm.07,2a3.24,3.24,0,0,1-.94.58,2.57,2.57,0,0,1-1,.17,1.94,1.94,0,0,1-1.31-.41,1.47,1.47,0,0,1-.28-1.77,1.36,1.36,0,0,1,.45-.5,2.26,2.26,0,0,1,.63-.29,7.75,7.75,0,0,1,.78-.13,9.1,9.1,0,0,0,1.57-.3c0-.13,0-.2,0-.23a1,1,0,0,0-.25-.76,1.48,1.48,0,0,0-1-.3,1.52,1.52,0,0,0-.92.22,1.32,1.32,0,0,0-.44.77l-.86-.12a2.15,2.15,0,0,1,.39-.89,1.65,1.65,0,0,1,.78-.52,3.46,3.46,0,0,1,1.17-.19,3.2,3.2,0,0,1,1.08.16,1.34,1.34,0,0,1,.61.39,1.38,1.38,0,0,1,.27.6,4.68,4.68,0,0,1,.05.81v1.18a15,15,0,0,0,.05,1.55,2.12,2.12,0,0,0,.23.62h-.92A2.08,2.08,0,0,1,256.76,48.25Z" transform="translate(-11.11 -8.7)"/>
        <path id="Fill-61" d="M259.89,48.89V43.7h.79v.74a1.87,1.87,0,0,1,1.65-.86,2.2,2.2,0,0,1,.86.17,1.31,1.31,0,0,1,.59.44,1.91,1.91,0,0,1,.28.65,5.76,5.76,0,0,1,0,.86v3.19h-.87V45.73a2.32,2.32,0,0,0-.11-.8.88.88,0,0,0-.36-.43,1.23,1.23,0,0,0-.61-.15,1.4,1.4,0,0,0-1,.35,1.77,1.77,0,0,0-.41,1.35v2.84Z" transform="translate(-11.11 -8.7)"/>
        <path id="Fill-62" d="M267,46.2a2.25,2.25,0,0,0,.4,1.49,1.3,1.3,0,0,0,1,.47,1.33,1.33,0,0,0,1-.47,2.19,2.19,0,0,0,.41-1.46,2.1,2.1,0,0,0-.43-1.44,1.31,1.31,0,0,0-1-.48,1.25,1.25,0,0,0-1,.48A2.14,2.14,0,0,0,267,46.2m-.73,3.12.86.12a.79.79,0,0,0,.29.58,1.5,1.5,0,0,0,.9.24,1.59,1.59,0,0,0,.94-.24,1.21,1.21,0,0,0,.45-.68,6.59,6.59,0,0,0,.06-1.13,1.8,1.8,0,0,1-1.43.68,2,2,0,0,1-1.66-.77,3,3,0,0,1-.58-1.86,3.63,3.63,0,0,1,.26-1.37,2.13,2.13,0,0,1,.78-1,2.09,2.09,0,0,1,1.2-.35,1.84,1.84,0,0,1,1.51.75V43.7h.82v4.48a4.34,4.34,0,0,1-.25,1.72,1.82,1.82,0,0,1-.78.8,2.8,2.8,0,0,1-1.32.29,2.51,2.51,0,0,1-1.5-.42,1.41,1.41,0,0,1-.55-1.25" transform="translate(-11.11 -8.7)"/>
        <path id="Fill-63" d="M281.86,46.38l.95.24a3.26,3.26,0,0,1-1.07,1.78,3,3,0,0,1-1.9.61,3.45,3.45,0,0,1-1.88-.47,3,3,0,0,1-1.1-1.37,4.87,4.87,0,0,1-.38-1.92,4.18,4.18,0,0,1,.43-2A3,3,0,0,1,278.12,42a3.57,3.57,0,0,1,1.74-.44,3,3,0,0,1,1.81.55,3,3,0,0,1,1,1.54l-.94.22a2.17,2.17,0,0,0-.72-1.14,1.91,1.91,0,0,0-1.19-.35,2.34,2.34,0,0,0-1.38.39,2.13,2.13,0,0,0-.78,1.06,4.33,4.33,0,0,0-.22,1.38,4.49,4.49,0,0,0,.26,1.59,2,2,0,0,0,.83,1,2.27,2.27,0,0,0,1.22.34,2,2,0,0,0,1.34-.46,2.35,2.35,0,0,0,.75-1.36" transform="translate(-11.11 -8.7)"/>
        <path id="Fill-64" d="M284.81,48.89V41.73h.88V44.3a2,2,0,0,1,1.56-.72,2.14,2.14,0,0,1,1,.23,1.31,1.31,0,0,1,.6.63A2.74,2.74,0,0,1,289,45.6v3.29h-.88V45.6a1.36,1.36,0,0,0-.29-1,1.06,1.06,0,0,0-.81-.3,1.46,1.46,0,0,0-.73.2,1.18,1.18,0,0,0-.49.55,2.47,2.47,0,0,0-.15,1v2.84Z" transform="translate(-11.11 -8.7)"/>
        <path id="Fill-65" d="M291.33,48.89h.88V43.7h-.88Zm0-6.15h.88v-1h-.88Z" transform="translate(-11.11 -8.7)"/>
        <path id="Fill-66" d="M294.5,48.89V43.7h.79v.74a1.87,1.87,0,0,1,1.65-.86,2.2,2.2,0,0,1,.86.17,1.37,1.37,0,0,1,.59.44,1.72,1.72,0,0,1,.27.65,5.4,5.4,0,0,1,0,.86v3.19h-.88V45.73a2.36,2.36,0,0,0-.1-.8.85.85,0,0,0-.37-.43,1.17,1.17,0,0,0-.61-.15,1.43,1.43,0,0,0-1,.35,1.77,1.77,0,0,0-.4,1.35v2.84Z" transform="translate(-11.11 -8.7)"/>
        <path id="Fill-67" d="M301.58,46.2a2.25,2.25,0,0,0,.4,1.49,1.33,1.33,0,0,0,2,0,2.74,2.74,0,0,0,0-2.9,1.31,1.31,0,0,0-1-.48,1.25,1.25,0,0,0-1,.48,2.08,2.08,0,0,0-.41,1.41m-.73,3.12.85.12a.84.84,0,0,0,.3.58,1.49,1.49,0,0,0,.89.24,1.61,1.61,0,0,0,.95-.24,1.21,1.21,0,0,0,.45-.68,6.59,6.59,0,0,0,.06-1.13,1.81,1.81,0,0,1-1.44.68,2,2,0,0,1-1.65-.77,3,3,0,0,1-.59-1.86,3.45,3.45,0,0,1,.27-1.37,2.13,2.13,0,0,1,.78-1,2.09,2.09,0,0,1,1.2-.35,1.85,1.85,0,0,1,1.51.75V43.7h.81v4.48A4.38,4.38,0,0,1,305,49.9a1.88,1.88,0,0,1-.78.8,2.8,2.8,0,0,1-1.32.29,2.47,2.47,0,0,1-1.5-.42,1.41,1.41,0,0,1-.55-1.25" transform="translate(-11.11 -8.7)"/>
        <path id="Fill-68" d="M313.2,48.89v-3l-2.76-4.13h1.15L313,43.89c.26.4.5.8.73,1.21.21-.38.47-.8.78-1.27l1.39-2.1H317l-2.86,4.13v3Z" transform="translate(-11.11 -8.7)"/>
        <path id="Fill-69" d="M321.53,48.89v-.77a1.88,1.88,0,0,1-1.64.88,2.24,2.24,0,0,1-.86-.17,1.55,1.55,0,0,1-.59-.44,1.64,1.64,0,0,1-.27-.66,4,4,0,0,1-.06-.82V43.7H319v2.88a4.57,4.57,0,0,0,.06.92.87.87,0,0,0,.35.55,1.1,1.1,0,0,0,.66.2,1.44,1.44,0,0,0,.75-.21,1.09,1.09,0,0,0,.49-.55,2.9,2.9,0,0,0,.14-1V43.7h.88v5.19Z" transform="translate(-11.11 -8.7)"/>
        <path id="Fill-70" d="M328.46,48.89V41.73h1.43l1.69,5.07c.15.47.27.82.34,1.06.08-.26.21-.65.38-1.15l1.72-5h1.27v7.16h-.91v-6l-2.08,6h-.86l-2.07-6.1v6.1Z" transform="translate(-11.11 -8.7)"/>
        <path id="Fill-71" d="M338.32,45.8h2.9a1.73,1.73,0,0,0-.34-1,1.36,1.36,0,0,0-1.09-.5,1.41,1.41,0,0,0-1,.4,1.63,1.63,0,0,0-.45,1.09m2.89,1.42.9.11a2.16,2.16,0,0,1-.79,1.23,2.38,2.38,0,0,1-1.49.44,2.34,2.34,0,0,1-1.8-.7,2.71,2.71,0,0,1-.67-2,2.85,2.85,0,0,1,.68-2,2.25,2.25,0,0,1,1.74-.73,2.22,2.22,0,0,1,1.7.71,2.81,2.81,0,0,1,.66,2v.24h-3.87a2,2,0,0,0,.48,1.31,1.45,1.45,0,0,0,1.09.45,1.33,1.33,0,0,0,.82-.25,1.73,1.73,0,0,0,.55-.81" transform="translate(-11.11 -8.7)"/>
        <path id="Fill-72" d="M344.17,48.89V43.7H345v.73a1.81,1.81,0,0,1,.65-.61,1.78,1.78,0,0,1,.92-.24,1.72,1.72,0,0,1,1,.24,1.28,1.28,0,0,1,.52.67,1.87,1.87,0,0,1,1.6-.91,1.6,1.6,0,0,1,1.19.43,1.83,1.83,0,0,1,.41,1.32v3.56h-.87V45.62a2.28,2.28,0,0,0-.09-.76.66.66,0,0,0-.31-.37.91.91,0,0,0-.52-.15,1.24,1.24,0,0,0-.91.37,1.6,1.6,0,0,0-.36,1.16v3h-.88V45.52a1.43,1.43,0,0,0-.22-.88.79.79,0,0,0-.7-.29,1.22,1.22,0,0,0-.68.19,1,1,0,0,0-.46.57,3.09,3.09,0,0,0-.14,1.09v2.69Z" transform="translate(-11.11 -8.7)"/>
        <path id="Fill-73" d="M354,46.29a2.24,2.24,0,0,0,.44,1.5,1.45,1.45,0,0,0,2.18,0,2.26,2.26,0,0,0,.44-1.52,2.13,2.13,0,0,0-.44-1.45,1.39,1.39,0,0,0-1.09-.5,1.41,1.41,0,0,0-1.09.49,2.21,2.21,0,0,0-.44,1.49m-.9,0a2.67,2.67,0,0,1,.8-2.13,2.39,2.39,0,0,1,1.63-.58,2.36,2.36,0,0,1,1.75.7,2.7,2.7,0,0,1,.68,1.94,3.4,3.4,0,0,1-.3,1.57,2.12,2.12,0,0,1-.88.9,2.55,2.55,0,0,1-1.25.31,2.36,2.36,0,0,1-1.76-.69,2.8,2.8,0,0,1-.67-2" transform="translate(-11.11 -8.7)"/>
        <path id="Fill-74" d="M360,48.89V43.7h.79v.79a2.16,2.16,0,0,1,.56-.73,1,1,0,0,1,.56-.18,1.74,1.74,0,0,1,.91.29l-.31.81a1.21,1.21,0,0,0-.64-.19.9.9,0,0,0-.52.17,1,1,0,0,0-.33.48,3.77,3.77,0,0,0-.14,1v2.71H360Z" transform="translate(-11.11 -8.7)"/>
        <path id="Fill-75" d="M364.24,48.89h.88V43.7h-.88Zm0-6.15h.88v-1h-.88Z" transform="translate(-11.11 -8.7)"/>
        <path id="Fill-76" d="M370.72,46.28a7,7,0,0,1-1.44.34,3.51,3.51,0,0,0-.76.17.77.77,0,0,0-.35.29.77.77,0,0,0,.15,1,1.09,1.09,0,0,0,.77.23,1.83,1.83,0,0,0,.91-.22,1.42,1.42,0,0,0,.58-.61,2.17,2.17,0,0,0,.14-.88v-.32Zm.07,2a3.21,3.21,0,0,1-.93.58,2.66,2.66,0,0,1-1,.17,1.94,1.94,0,0,1-1.31-.41,1.47,1.47,0,0,1-.28-1.77,1.36,1.36,0,0,1,.45-.5,2.26,2.26,0,0,1,.63-.29,6.85,6.85,0,0,1,.78-.13,9.3,9.3,0,0,0,1.57-.3c0-.13,0-.2,0-.23a1,1,0,0,0-.25-.76,1.48,1.48,0,0,0-1-.3,1.52,1.52,0,0,0-.92.22,1.32,1.32,0,0,0-.44.77l-.86-.12a2.15,2.15,0,0,1,.39-.89,1.67,1.67,0,0,1,.77-.52,3.56,3.56,0,0,1,1.18-.19,3.2,3.2,0,0,1,1.08.16,1.34,1.34,0,0,1,.61.39,1.38,1.38,0,0,1,.27.6,4.68,4.68,0,0,1,.05.81v1.18a15,15,0,0,0,.05,1.55,2.12,2.12,0,0,0,.23.62H371A2.08,2.08,0,0,1,370.79,48.25Z" transform="translate(-11.11 -8.7)"/>
        <polygon id="Fill-77" points="362.79 40.19 363.67 40.19 363.67 33.03 362.79 33.03 362.79 40.19"/>
        <polygon id="Fill-78" points="369.78 40.19 369.78 33.03 370.73 33.03 370.73 39.34 374.25 39.34 374.25 40.19 369.78 40.19"/>
        <path id="Fill-79" d="M387.34,48.89h.88V43.7h-.88Zm0-6.15h.88v-1h-.88Z" transform="translate(-11.11 -8.7)"/>
        <path id="Fill-80" d="M391.31,46.25a2.66,2.66,0,0,0,.25,1.35,1.26,1.26,0,0,0,2.12.18,2.26,2.26,0,0,0,.42-1.49,2.36,2.36,0,0,0-.4-1.5,1.24,1.24,0,0,0-1-.48,1.27,1.27,0,0,0-1,.5A2.17,2.17,0,0,0,391.31,46.25Zm0,2.64h-.82V41.73h.88v2.55a1.75,1.75,0,0,1,1.42-.7,2.12,2.12,0,0,1,.9.2,1.75,1.75,0,0,1,.71.54,2.56,2.56,0,0,1,.43.84,3.32,3.32,0,0,1,.16,1.06,3,3,0,0,1-.66,2.06,2.09,2.09,0,0,1-1.58.73,1.64,1.64,0,0,1-1.44-.77v.65Z" transform="translate(-11.11 -8.7)"/>
        <path id="Fill-81" d="M397,48.89V43.7h.79v.79a2.16,2.16,0,0,1,.56-.73,1,1,0,0,1,.56-.18,1.68,1.68,0,0,1,.9.29l-.3.81a1.21,1.21,0,0,0-.64-.19.87.87,0,0,0-.52.17,1,1,0,0,0-.33.48,3.42,3.42,0,0,0-.14,1v2.71H397Z" transform="translate(-11.11 -8.7)"/>
        <path id="Fill-82" d="M404.61,46.28a7,7,0,0,1-1.44.34,3.64,3.64,0,0,0-.77.17.75.75,0,0,0-.34.29.75.75,0,0,0,.14,1,1.14,1.14,0,0,0,.78.23,1.77,1.77,0,0,0,.9-.22,1.31,1.31,0,0,0,.58-.61,2,2,0,0,0,.15-.88v-.32Zm.07,2a3.24,3.24,0,0,1-.94.58,2.57,2.57,0,0,1-1,.17,1.9,1.9,0,0,1-1.31-.41,1.38,1.38,0,0,1-.46-1.07,1.51,1.51,0,0,1,.17-.7,1.48,1.48,0,0,1,.46-.5,2,2,0,0,1,.63-.29,6.85,6.85,0,0,1,.78-.13,9.3,9.3,0,0,0,1.57-.3v-.23a1,1,0,0,0-.25-.76,1.46,1.46,0,0,0-1-.3,1.49,1.49,0,0,0-.91.22,1.27,1.27,0,0,0-.44.77l-.86-.12a2.15,2.15,0,0,1,.39-.89,1.57,1.57,0,0,1,.77-.52,3.52,3.52,0,0,1,1.18-.19,3.24,3.24,0,0,1,1.08.16,1.4,1.4,0,0,1,.61.39,1.38,1.38,0,0,1,.27.6,4.68,4.68,0,0,1,.05.81v1.18a12.5,12.5,0,0,0,.05,1.55,2.09,2.09,0,0,0,.22.62h-.91A2.08,2.08,0,0,1,404.68,48.25Z" transform="translate(-11.11 -8.7)"/>
        <path id="Fill-83" d="M407.8,48.89V43.7h.79v.79a2.16,2.16,0,0,1,.56-.73,1,1,0,0,1,.56-.18,1.74,1.74,0,0,1,.91.29l-.31.81a1.21,1.21,0,0,0-.64-.19.9.9,0,0,0-.52.17,1,1,0,0,0-.33.48,3.77,3.77,0,0,0-.14,1v2.71h-.88Z" transform="translate(-11.11 -8.7)"/>
        <path id="Fill-84" d="M412.05,50.88l-.1-.82a2.05,2.05,0,0,0,.5.08,1,1,0,0,0,.47-.1.84.84,0,0,0,.29-.27,3.66,3.66,0,0,0,.27-.66s0-.12.08-.21l-2-5.2h1l1.08,3c.14.39.26.79.37,1.2a12.33,12.33,0,0,1,.36-1.18l1.11-3h.88l-2,5.27a9.08,9.08,0,0,1-.5,1.18,1.73,1.73,0,0,1-.53.64,1.3,1.3,0,0,1-.73.2,1.58,1.58,0,0,1-.56-.11" transform="translate(-11.11 -8.7)"/>
      </g>
      <g id="中原">
        <path id="Fill-87" class="cls-1" d="M74.94,15c-.49.11-.78,0-1.18.35.14,1.12.07,2.44.71,3.06,1.42-.42,3.53-.15,4.82-.7-.2-.91.6-.81.35-1.77-.93-1-3-1.44-4.94-1.06.1,0,.24,0,.24.12m-8.59,1.29c-.08.84.15,1.35.12,2.12.63.52,2,.25,2.47.59,0-.14,0-.33.12-.35,1.27,0,2.8.14,3.29-.36a12.45,12.45,0,0,1,0-3.17c-2.38-.69-5.22-.62-6,1.17m8.12-5.41c-.18.27-.91.93-.59,1.77.52,1.35,3.55-.2,4.82.7.41-.1.89-.13,1.06-.47,1.23,0,2.15.37,3.41.36a1.84,1.84,0,0,1,.36,1.41,4.92,4.92,0,0,0-1.77,4c-.41.13-.52.57-.47,1.17-.31.17-.88.06-.94.47-1.31-.1-4.23-.13-4.94-.58-.38.2-.85.33-1.06.7-.06.47.49,1.12,0,1.29,0,.16.3.1.47.12-1.06,1.22.18,3.31-.47,5.65-.32.08-.23-.24-.47-.24,0,.38-.27.52-.23.94a2,2,0,0,1-1.77-.47V26.24a.62.62,0,0,1,.36-.12c.12-1.91.81-5.22-.71-6.11-.46.48-1.78.19-1.88.7-.38.11-.25-.3-.47-.35-1.23.19-1.84,1-3.18,1.06-.16,0-.1.29-.12.47-1.16.18-1.76.27-2.47-.35-.19-2.12.64-2.72,1.18-4.24a14.28,14.28,0,0,1-1.29-1.76c0-.08.21-.15.23-.12-.71-1-2.4-1.54-.94-2.59,2.69.22,5.71.09,8.47.24a7.23,7.23,0,0,0,.82-1.41c-.28-.11-.35-.44-.82-.36,0-.81-.6-1-.35-2,1,.08,1.74-.74,2.47-.58.91.2.82,1.25,1.29,2.11" transform="translate(-11.11 -8.7)"/>
        <path id="Fill-89" class="cls-1" d="M166.56,11.66c.1,0,.24,0,.24.11a3,3,0,0,0-1.41,2.59c.67,0,.69.64,1.17.83.75-.75,2.81-.18,3.65-.83.06-.49-.34-.52-.23-1.06-.62-.12-1.55.06-1.89-.35.56.06.22-.15.12-.35.67,0,1.19-.23,1.88-.24.09-.43-.2-.5-.11-.94-1.54,0-2.64-.5-3.42.24m-2.47,1.53c.86-.09,1.19-.7,1.53-1.3a1.85,1.85,0,0,0-1.17-.23,2,2,0,0,0-.36,1.53c-.79-.42-1-1.48-1.05-2.59,1.36.11,1-1.56,2-1.77.35.79.51,1.76,1.29,2.12a33,33,0,0,1,6.12-.59,1.53,1.53,0,0,1,.23,1.06A2.73,2.73,0,0,0,170.92,13c.28,1-.28,2.54-.12,3.41-1-.77-3-.57-4.71-.59-.42-.75-1.49-.86-2.58-.94a.76.76,0,0,1-1.18.36c.58-.89,1.56-.7,1.76-2" transform="translate(-11.11 -8.7)"/>
        <path id="Fill-91" class="cls-1" d="M161.39,9.42v.83a2.75,2.75,0,0,0-2.23,1.29c.23.39.9.34,1.52.35v1.3h-1.05c-.48.07-.35.75-.36,1.29.35.24,1.13,0,1.3.47.13.8-.72.62-.94,1.06.1.6.56.85.94,1.18,3.35-.37,7.67.22,10.82-.36a9.19,9.19,0,0,0,3.06.36,1.54,1.54,0,0,1-1.3,1.41v.82c-.37,0-.52.27-.94.23-.19-.41,0-.62-.12-1.17-2.32-.86-5.82-.73-8.82-.59-.25.06-.22-.17-.23-.35-.42-.18-.07.4-.36.35-2.06.25-4.36-.39-5.29.59-.16,0,0,.21.12.23-1.22.12-1.14,1.53-2.35,1.65a6.6,6.6,0,0,1-.24-4.12c.8.35,1.53,1.36,2.82.83.87-1.53.22-3.88.12-5.77a1.74,1.74,0,0,1-.94-1.29c1-.69,3.35-.69,4.47-.59" transform="translate(-11.11 -8.7)"/>
        <path id="Fill-93" class="cls-1" d="M102.58,10a2.25,2.25,0,0,0,.94,2.47c1.36-.5,4-.52,6.23-.47a2.73,2.73,0,0,1,.36,1.76c-4,.32-8.22-.27-11.76.83-.73.72-1.51,1.51-.94,2.94a2,2,0,0,0-.12,1.76c-.85,1.28-.83,3-1.18,4.59-.21.45-.94.39-.7,1.29-.24.24-.24-.05-.48-.11v1.05c-.4-.09-.56.07-.47.47a3.71,3.71,0,0,0-1.76.95c-.73-.14-1.6-.41-2.24,0a3.75,3.75,0,0,0-1.76-.83,2.9,2.9,0,0,1,.94-2.35c.57-.06.45.57.71.82,1.11.14,1.51-.44,2.47-.47,1.37-2.62,3-5,2.82-9.17-.45-.2,0-.63-.59-.59,0-1-.29-1.85.12-2.59a2.59,2.59,0,0,1,2,.59c1.19-.14,2.39-.27,3.53-.47.25-.1.19-.52.35-.71a3.35,3.35,0,0,1-1.06-2,4.87,4.87,0,0,1,2.59.23" transform="translate(-11.11 -8.7)"/>
        <path id="Fill-95" class="cls-1" d="M133.51,12.13c.31.44-.14,1.63.71,1.53-.28.58.07,1.79-.59,2,.13.67.54.34.82.82,2.43,0,6.19-.85,7.77.12,0,.43.1,1-.12,1.29-3.06.11-5.3-.35-6.7.59-.24.67.49,1,.23,1.29.54.52,1.34.78,1.53,1.65,1.21.69,2.77,1.19,3.53,2,1.58,0,2.32.82,3.29,1.41.28,0,.35-.2.71-.12.53,1.11,2.68.61,4,.94.11.82-.46,1-1.06,1.06-.14.17-.13.29.11.36-.83,1-2.48,1.12-3.52,1.88-.4-.36-1.66-1.1-2.12-.83-.45-.73-1.5-.85-1.53-2-1.49-.23-1.58-1.94-3.18-2.35.16-.46-.38-.24-.23-.7-1.32-.2-.95-1.61-2.35-1.53a.62.62,0,0,0,.12-.36c-.24,0-.37,0-.36.24-.48-1.06-2.24-.68-2.7-.12.27,1.26-.63,1.82-.59,2.47-.6-.16-.62.24-1.06.24.09.95-.49,1.24-.82,1.76-.39.07-.6,0-.71-.23,0,.65-1.24.09-1.18.82-.65,0-1.42-.19-1.88.23-2,.29-2.92-.9-3.88-2a2.84,2.84,0,0,1,.35-1.53c2.5,0,4.69.69,6.59-.24.21-.11.26-.37.24-.7a2.88,2.88,0,0,0,2.35-3.3,2.86,2.86,0,0,0-.94-.7c-.36.57-2.06.13-2.47.7-1-.59-1.71,0-3.53-.12a2.85,2.85,0,0,1,.47-2.47,31.18,31.18,0,0,0,4.82.24c.91.05,1.88.64,2.24-.35-.91-1.5-2.08-4.86,1.64-4" transform="translate(-11.11 -8.7)"/>
        <path id="Fill-97" class="cls-1" d="M101.64,19.77c0,.64-.69.5-.47,1.3.33.17.48.53.82.7,2.31-.64,6.51,1.24,6.94-1.64-.4-.2-.33-.22,0-.48-1.94-.46-4.81.09-7.29.12m4.59-3.06c-.73.86-2.45-.66-2.83.48a3.89,3.89,0,0,0-1.64.7c.18.41.2,1,.7,1.06.2,0,.07-.33.24-.35s0,.43.35.35.07-.33.24-.35c2-.25,3.16-.39,4.58.11.37-.37.86-.63.71-1.52-.76-.33-1.75-.26-2.35-.48m3.88-1.05c.32.65.91,1,.82,2.11h-.59a2.46,2.46,0,0,0,.36,2c-.3.22-.3.73-.59.94a.81.81,0,0,0,.35.24,2.16,2.16,0,0,0-.47,1.76,11,11,0,0,1-4.47.12c-.22,0-.08.39-.35.35-.38-.47-.55.08-.59-.47-1.28.65-2.83.28-4.59.47-.08-.69.06-2.12.71-2.47a.52.52,0,0,0-.24-.47c.72-2-1.7-4,.94-4.47,2.22-.38,6.06-.08,8.71-.11" transform="translate(-11.11 -8.7)"/>
        <path id="Fill-99" class="cls-1" d="M166.56,21.18c-.18-.86-2-.91-2.7-.23-.51,1.56,3.06,1.92,2.7.23m1.65-.47c-.19.63-.76.89-1.18,1.3.41,2.59,5,0,5.65,2.35-1.15.47-2.41-.12-3.88,0-.73-1.07-2.26-.75-3.18-.12.24,1.26-.56,1.47-.82,2.24-1-.25-.89.6-1.65.59.2,1.06-1.48,1.36-1.06,1.88-.78.5-1.86.72-2.7,1.17-1.3-.38-2.95-.41-4.23-.82-.22-.37-.36-.82-.59-1.18.56-.06.29-.95.35-1.53,1.09.36,2.31,1.28,4,1.18a25.25,25.25,0,0,0,3.65-.94c.93-.53,3-3.27,1.05-3.53-.48-.07-1.54.5-2.47.47-.11,0-.42-.24-.47-.23-1,.15-1.82,1-2.58.82a6.75,6.75,0,0,0-.59-.47c-.14-.68.24-.86.35-1.29,2-.06,4.3.22,5.65-.47,0-.2-.39-.86.11-.83-.84-.57-2.25-.56-3.41-.82.33-.27.08-.39.12-.94.75-.17,2.21.51,3.88.35.78-.07,1.33-.43,2.12-.23.45.53,1.65.3,1.88,1.05" transform="translate(-11.11 -8.7)"/>
        <path id="Fill-101" class="cls-1" d="M104.23,24.24h.23a4.92,4.92,0,0,0,1.53.94c.08.35-.24,1.11.35.94-.08,1,.27,2.38-.7,3.06-.54-.08-.7-.56-1.29-.59.05-1.53-.68-2.86-.12-4.35" transform="translate(-11.11 -8.7)"/>
        <path id="Fill-103" class="cls-1" d="M114.58,26.12c-.54.5-1.73,1.55-2.24,1.3-1.46,2.14-3.57-.43-3.29-2.82.24,0,.37,0,.35-.24,1.48.72,2.21,1.65,4.24,1.06a1.69,1.69,0,0,0,.94.7" transform="translate(-11.11 -8.7)"/>
        <path id="Fill-105" class="cls-1" d="M100.93,25.18c.22.55.74,1.83-.35,1.77-.26.13-.18.6-.47.7s-.75-.57-.82.12c-.81-.56-1.91-.84-2.12-2,1.18-.32,2.59-.95,3.76-.59" transform="translate(-11.11 -8.7)"/>
      </g>
      <polygon id="Fill-107" class="cls-5" points="46.81 26.53 410.81 26.53 410.81 25.78 46.81 25.78 46.81 26.53"/>
    </g>
  </g>
</svg>
